<svg width="1000" height="1000" viewBox="0 0 1000 1000" fill="none" xmlns="http://www.w3.org/2000/svg">
<g clip-path="url(#clip0_8_1381)">
<path d="M1000 0H0V1000H1000V0Z" fill="white"/>
<path d="M455.7 501.5L594.7 615.7C601.6 621.4 611.6 621.4 618.5 615.7C627.6 608.2 627.6 594.2 618.5 586.8L468.5 463.6C461.1 457.5 450.4 457.5 442.9 463.6L293 586.7C283.9 594.2 283.9 608.2 293 615.6C299.9 621.3 309.9 621.3 316.8 615.6L455.7 501.5Z" stroke="#CECECE" stroke-width="6" stroke-miterlimit="10" stroke-linecap="round" stroke-linejoin="round"/>
<path d="M455.7 501.5L341.5 595.3L351.4 784.4H560.1L569.9 595.3L455.7 501.5Z" stroke="#CECECE" stroke-width="6" stroke-miterlimit="10" stroke-linecap="round" stroke-linejoin="round"/>
<path d="M455.7 623.2C415 623.2 383.1 650.5 384.3 683.2L388.1 784.4H523.3L527.1 683.2C528.3 650.5 496.4 623.2 455.7 623.2Z" stroke="#CECECE" stroke-width="6" stroke-miterlimit="10" stroke-linecap="round" stroke-linejoin="round"/>
<path d="M435 590C436.9 594.4 442 596.4 446.4 594.6C449.2 593.5 452.4 592.8 455.7 592.8C459 592.8 462.2 593.4 465 594.6C469.4 596.4 474.5 594.4 476.4 590C477.3 587.9 477.8 585.6 477.8 583.3C477.8 572.7 467.9 564.2 455.6 564.2C443.3 564.2 433.4 572.8 433.4 583.3C433.6 585.7 434 587.9 435 590Z" stroke="#CECECE" stroke-width="6" stroke-miterlimit="10" stroke-linecap="round" stroke-linejoin="round"/>
<path d="M433.123 560.788C436.511 558.128 437.434 553.648 435.183 550.781C432.933 547.914 428.361 547.745 424.973 550.405C421.584 553.065 420.662 557.545 422.912 560.412C425.163 563.279 429.734 563.448 433.123 560.788Z" stroke="#CECECE" stroke-width="6" stroke-miterlimit="10" stroke-linecap="round" stroke-linejoin="round"/>
<path d="M455.7 553.5C461.333 553.5 465.9 550.411 465.9 546.6C465.9 542.789 461.333 539.7 455.7 539.7C450.067 539.7 445.5 542.789 445.5 546.6C445.5 550.411 450.067 553.5 455.7 553.5Z" stroke="#CECECE" stroke-width="6" stroke-miterlimit="10" stroke-linecap="round" stroke-linejoin="round"/>
<path d="M486.071 563.097C488.321 560.23 487.399 555.749 484.01 553.09C480.622 550.43 476.05 550.598 473.8 553.466C471.549 556.333 472.472 560.813 475.861 563.473C479.249 566.133 483.82 565.964 486.071 563.097Z" stroke="#CECECE" stroke-width="6" stroke-miterlimit="10" stroke-linecap="round" stroke-linejoin="round"/>
<path d="M503.4 773V784" stroke="#00354C" stroke-width="6" stroke-miterlimit="10" stroke-linecap="round" stroke-linejoin="round"/>
<path d="M190.3 606.6C196.21 606.6 201 598.81 201 589.2C201 579.59 196.21 571.8 190.3 571.8C184.391 571.8 179.6 579.59 179.6 589.2C179.6 598.81 184.391 606.6 190.3 606.6Z" fill="#01D392"/>
<path d="M806.309 677.229L796.409 667.329L786.51 677.229L796.409 687.128L806.309 677.229Z" fill="#01D392"/>
<path d="M735.963 387.464L729.599 381.1L723.235 387.464L729.599 393.827L735.963 387.464Z" fill="#01D392"/>
<path d="M227.1 256.3V270.6" stroke="#00354C" stroke-width="3" stroke-miterlimit="10" stroke-linecap="round" stroke-linejoin="round"/>
<path d="M227.1 288.7V303" stroke="#00354C" stroke-width="3" stroke-miterlimit="10" stroke-linecap="round" stroke-linejoin="round"/>
<path d="M206.8 268L219.2 275.1" stroke="#00354C" stroke-width="3" stroke-miterlimit="10" stroke-linecap="round" stroke-linejoin="round"/>
<path d="M235 284.2L247.4 291.3" stroke="#00354C" stroke-width="3" stroke-miterlimit="10" stroke-linecap="round" stroke-linejoin="round"/>
<path d="M206.8 291.3L219.2 284.2" stroke="#00354C" stroke-width="3" stroke-miterlimit="10" stroke-linecap="round" stroke-linejoin="round"/>
<path d="M235 275.1L247.4 268" stroke="#00354C" stroke-width="3" stroke-miterlimit="10" stroke-linecap="round" stroke-linejoin="round"/>
<path d="M853.1 317.4V327.3" stroke="#00354C" stroke-width="3" stroke-miterlimit="10" stroke-linecap="round" stroke-linejoin="round"/>
<path d="M853.1 339.9V349.9" stroke="#00354C" stroke-width="3" stroke-miterlimit="10" stroke-linecap="round" stroke-linejoin="round"/>
<path d="M839.1 325.5L847.7 330.5" stroke="#00354C" stroke-width="3" stroke-miterlimit="10" stroke-linecap="round" stroke-linejoin="round"/>
<path d="M858.6 336.8L867.2 341.7" stroke="#00354C" stroke-width="3" stroke-miterlimit="10" stroke-linecap="round" stroke-linejoin="round"/>
<path d="M839.1 341.7L847.7 336.8" stroke="#00354C" stroke-width="3" stroke-miterlimit="10" stroke-linecap="round" stroke-linejoin="round"/>
<path d="M858.6 330.5L867.2 325.5" stroke="#00354C" stroke-width="3" stroke-miterlimit="10" stroke-linecap="round" stroke-linejoin="round"/>
<path d="M776.5 479.9C784.839 479.9 791.6 473.14 791.6 464.8C791.6 456.461 784.839 449.7 776.5 449.7C768.16 449.7 761.4 456.461 761.4 464.8C761.4 473.14 768.16 479.9 776.5 479.9Z" fill="#F7BF46"/>
<path d="M776.5 442.8V454.9" stroke="#00354C" stroke-width="3" stroke-miterlimit="10" stroke-linecap="round" stroke-linejoin="round"/>
<path d="M776.5 474.6V486.7" stroke="#00354C" stroke-width="3" stroke-miterlimit="10" stroke-linecap="round" stroke-linejoin="round"/>
<path d="M757.5 453.8L768 459.8" stroke="#00354C" stroke-width="3" stroke-miterlimit="10" stroke-linecap="round" stroke-linejoin="round"/>
<path d="M785.1 469.7L795.6 475.7" stroke="#00354C" stroke-width="3" stroke-miterlimit="10" stroke-linecap="round" stroke-linejoin="round"/>
<path d="M757.5 476.4L768 469.7" stroke="#00354C" stroke-width="3" stroke-miterlimit="10" stroke-linecap="round" stroke-linejoin="round"/>
<path d="M785.1 459.8L795.6 453.8" stroke="#00354C" stroke-width="3" stroke-miterlimit="10" stroke-linecap="round" stroke-linejoin="round"/>
<path d="M550.5 140.9V155.6" stroke="#00354C" stroke-width="4" stroke-miterlimit="10" stroke-linecap="round" stroke-linejoin="round"/>
<path d="M557.8 148.2H543.2" stroke="#00354C" stroke-width="4" stroke-miterlimit="10" stroke-linecap="round" stroke-linejoin="round"/>
<path d="M889.7 655.1V669.8" stroke="#00354C" stroke-width="4" stroke-miterlimit="10" stroke-linecap="round" stroke-linejoin="round"/>
<path d="M897 662.5H882.3" stroke="#00354C" stroke-width="4" stroke-miterlimit="10" stroke-linecap="round" stroke-linejoin="round"/>
<path d="M375.2 396V405" stroke="#00354C" stroke-width="4" stroke-miterlimit="10" stroke-linecap="round" stroke-linejoin="round"/>
<path d="M379.7 400.5H370.7" stroke="#00354C" stroke-width="4" stroke-miterlimit="10" stroke-linecap="round" stroke-linejoin="round"/>
<path d="M340.387 473.352L333.316 466.281L326.245 473.352L333.316 480.423L340.387 473.352Z" fill="#F7BF46"/>
<path d="M112.1 431.2H138.5" stroke="#00354C" stroke-width="4" stroke-miterlimit="10" stroke-linecap="round" stroke-linejoin="round"/>
<path d="M147.5 431.2H157.6" stroke="#00354C" stroke-width="4" stroke-miterlimit="10" stroke-linecap="round" stroke-linejoin="round"/>
<path d="M126.8 444H156" stroke="#00354C" stroke-width="4" stroke-miterlimit="10" stroke-linecap="round" stroke-linejoin="round"/>
<path d="M684.2 555.1H710.5" stroke="#00354C" stroke-width="4" stroke-miterlimit="10" stroke-linecap="round" stroke-linejoin="round"/>
<path d="M719.5 555.1H729.6" stroke="#00354C" stroke-width="4" stroke-miterlimit="10" stroke-linecap="round" stroke-linejoin="round"/>
<path d="M698.8 565.8H728.1" stroke="#00354C" stroke-width="4" stroke-miterlimit="10" stroke-linecap="round" stroke-linejoin="round"/>
<path d="M700.5 244.4C729.053 244.4 752.2 221.253 752.2 192.7C752.2 164.147 729.053 141 700.5 141C671.947 141 648.8 164.147 648.8 192.7C648.8 221.253 671.947 244.4 700.5 244.4Z" fill="#F7BF46"/>
<path d="M752.2 203.4C780.753 203.4 803.9 180.253 803.9 151.7C803.9 123.147 780.753 100 752.2 100C723.647 100 700.5 123.147 700.5 151.7C700.5 180.253 723.647 203.4 752.2 203.4Z" fill="#F7BF46"/>
<path d="M823.9 217.4C849.968 217.4 871.1 196.268 871.1 170.2C871.1 144.132 849.968 123 823.9 123C797.832 123 776.7 144.132 776.7 170.2C776.7 196.268 797.832 217.4 823.9 217.4Z" fill="#F7BF46"/>
<path d="M752.2 273.5C780.643 273.5 803.7 250.443 803.7 222C803.7 193.557 780.643 170.5 752.2 170.5C723.758 170.5 700.7 193.557 700.7 222C700.7 250.443 723.758 273.5 752.2 273.5Z" fill="#F7BF46"/>
<path d="M807 256.3C825.944 256.3 841.3 240.944 841.3 222C841.3 203.057 825.944 187.7 807 187.7C788.057 187.7 772.7 203.057 772.7 222C772.7 240.944 788.057 256.3 807 256.3Z" fill="#F7BF46"/>
<path d="M698.8 327.6C698.8 335.4 696.8 340.1 689 340.1C681.2 340.1 674.8 337.1 674.8 329.3C674.8 321.5 678.9 314.5 686.8 314.5C694.7 314.5 698.8 319.8 698.8 327.6Z" fill="#F7BF46"/>
<path d="M726.9 288.7C726.9 300.5 724 307.5 712.2 307.5C700.4 307.5 691 303 691 291.2C691 279.4 700.5 269.9 712.3 269.9C724.1 269.9 726.9 277 726.9 288.7Z" fill="#F7BF46"/>
<path d="M804.8 188C806.3 186.2 807.2 183.7 806.9 181C806.4 176.8 800.7 174.7 798.3 174.2C795.1 173.6 788.4 176.5 788.4 182C788.4 183.3 787.4 184.4 786.1 184.4H740.6C739.3 184.4 738.3 183.3 738.3 182.1C738.3 180.9 738.1 179.6 737.5 178.3C736.2 175.3 732.9 174.9 730 174.6C725 174 719.7 176.5 719.7 182C719.7 184.3 720.5 186.3 721.9 187.9C722.8 189 722.8 190.6 721.9 191.7C720.4 193.5 719.5 196 719.8 198.7C720.3 202.9 724.3 204.7 728.1 205.1C733.1 205.7 738.3 203.1 738.3 197.7C738.3 196.4 739.3 195.3 740.6 195.3H786.1C787.4 195.3 788.4 196.4 788.4 197.6C788.4 198.8 788.6 200.1 789.2 201.4C790.5 204.4 795.2 205.1 797 205.5C800.2 206.1 806.9 203.2 806.9 197.7C806.9 195.4 806.1 193.4 804.7 191.8C803.9 190.7 803.9 189.1 804.8 188Z" fill="#F6F6F4"/>
<path d="M255.4 454.2C226.8 452.2 225.8 485.2 230.8 507.2C232.8 519.2 219.8 526.2 213.9 535.4C211.4 539.4 209.1 544.1 207.9 550.1C204.6 566 214 579.5 215.5 594C215.9 597.6 215.8 601.3 214.9 605.1C213.8 609.2 211.8 613.2 209.8 617.2C193.8 635.2 167.8 656.2 185.8 680.2C189.1 684.4 192.7 688.1 196.6 691.4C227.8 718.2 274.8 716.2 310.8 699.2C323.8 692.2 336.8 682.2 339.8 667.2C341.8 651.2 334.8 636.2 324.1 625.6C320.9 622.1 317.4 618.8 313.8 615.9C311.2 611.9 309.6 608.1 308.8 604.4C306.9 595.2 309.8 586.6 312.6 577.9C314 573.6 315.3 569.2 316 564.7C319.8 542.1 297.8 528.1 285.8 512.1C280.8 505.1 282.8 496.1 284.8 488.1C288.8 469.1 273.8 453.1 255.9 454.1" fill="#01D392"/>
<path d="M259.9 548.9C255.3 570.6 254.3 591.9 254.9 613.2C255.1 618.5 268.8 707.2 260 746C259.8 751.6 259.8 754.9 259.8 754.9" stroke="#00354C" stroke-width="6" stroke-miterlimit="10" stroke-linecap="round" stroke-linejoin="round"/>
<path d="M274.8 632.8L259.9 654.3" stroke="#00354C" stroke-width="6" stroke-miterlimit="10" stroke-linecap="round" stroke-linejoin="round"/>
<path d="M283.8 787.2H237.8C237.2 787.2 236.7 786.8 236.6 786.2L224.8 736.4H296.8L285 786.3C284.9 786.8 284.4 787.2 283.8 787.2Z" fill="#F7BF46"/>
<path opacity="0.68" d="M232 764H289.6" stroke="#F7BF46" stroke-miterlimit="10"/>
<path opacity="0.68" d="M232.9 767.601H288.7" stroke="#F7BF46" stroke-miterlimit="10"/>
<path d="M717 640.2C717.2 642.9 717.3 645.6 717.3 648.3C717.3 704.2 672.3 749.6 616.8 749.6C570.2 749.6 531 717.6 519.6 674.2C523.7 726.3 567 767.4 619.8 767.4C675.3 767.4 720.3 722.1 720.3 666.1C720.4 657.1 719.2 648.5 717 640.2Z" fill="white"/>
<path d="M717 640.2C717.2 642.9 717.3 645.6 717.3 648.3C717.3 704.2 672.3 749.6 616.8 749.6C570.2 749.6 531 717.6 519.6 674.2C523.7 726.3 567 767.4 619.8 767.4C675.3 767.4 720.3 722.1 720.3 666.1C720.4 657.1 719.2 648.5 717 640.2Z" stroke="#00354C" stroke-width="6" stroke-miterlimit="10" stroke-linecap="round" stroke-linejoin="round"/>
<path d="M541.3 549.2C524.3 541.6 494.7 597.6 487.8 639.2C482.1 673.3 484 704.6 492.7 724.5L541.3 549.2Z" fill="white"/>
<path d="M496.65 627.8C499.55 610.4 506.45 590.4 514.65 573.7C503.25 592.3 492.95 618.8 489.25 641.2C483.55 675.3 485.45 706.6 494.15 726.5L499.35 707.7C492.55 687.8 491.45 659 496.65 627.8Z" fill="#D1D1D1"/>
<path d="M541.3 549.2C524.3 541.6 494.7 597.6 487.8 639.2C482.1 673.3 484 704.6 492.7 724.5L541.3 549.2Z" stroke="#00354C" stroke-width="6" stroke-miterlimit="10" stroke-linecap="round" stroke-linejoin="round"/>
<path d="M593.7 549.2C610.7 541.6 640.3 597.6 647.2 639.2C652.9 673.3 651 704.6 642.3 724.5L593.7 549.2Z" fill="white"/>
<path d="M639.9 625.8C637 608.4 630.1 588.4 621.9 571.7C633.3 590.3 643.6 616.8 647.3 639.2C653 673.3 651.1 704.6 642.4 724.5L637.2 705.7C644 685.8 645 657 639.9 625.8Z" fill="#D1D1D1"/>
<path d="M593.7 549.2C610.7 541.6 640.3 597.6 647.2 639.2C652.9 673.3 651 704.6 642.3 724.5L593.7 549.2Z" stroke="#00354C" stroke-width="6" stroke-miterlimit="10" stroke-linecap="round" stroke-linejoin="round"/>
<path d="M645.3 732C644.2 715.4 601 535.2 589.3 526.2H568.2H546.5C534.8 535.2 491.5 715.3 490.5 732C489.2 752.7 482.4 784.2 521.7 784.2H568.2H614.2C653.4 784.2 646.6 752.7 645.3 732Z" fill="white"/>
<path d="M495.2 706.5C495.2 706.5 492.1 732.9 506.9 742.6C518.5 750.3 528.7 753.4 547.8 756.9C558.1 758.8 569.3 759.6 569.3 759.6L570.5 783.3L489.1 783.9C489.1 783.9 487.7 750.6 489.7 740.6C491.7 730.7 492.7 714.1 495.2 706.5Z" fill="#D1D1D1"/>
<path d="M641.4 706.5C641.4 706.5 644.5 732.9 629.7 742.6C618.1 750.3 607.9 753.4 588.8 756.9C578.5 758.8 567.3 759.6 567.3 759.6L566.1 783.3L647.5 783.9C647.5 783.9 648.9 750.6 646.9 740.6C644.9 730.7 643.9 714.1 641.4 706.5Z" fill="#D1D1D1"/>
<path d="M603.6 562.5C601.1 561.8 598.7 561.4 596.6 561.4C584.4 561.4 574.7 567.9 574.7 582.9C574.7 598 596.6 615.9 608.8 615.9C612.1 615.9 615.2 615 618 613.4C613.1 595 608.1 577.2 603.6 562.5Z" fill="#F7BF46"/>
<path d="M511.1 692.1C524.6 692.1 535.6 678.8 535.6 662.4C535.6 646.7 525.5 633.8 512.7 632.8C507.7 652.4 503 671.8 499.2 688.3C502.8 690.7 506.8 692.1 511.1 692.1Z" fill="#F7BF46"/>
<path d="M543.4 530.5C543.4 530.5 550.5 536.2 566.8 536.2C580 536.2 591.6 530.5 591.6 530.5L590.6 526.6H544.1L543.4 530.5Z" fill="#D1D1D1"/>
<path d="M645.3 732C644.2 715.4 601 535.2 589.3 526.2H568.2H546.5C534.8 535.2 491.5 715.3 490.5 732C489.2 752.7 482.4 784.2 521.7 784.2H568.2H614.2C653.4 784.2 646.6 752.7 645.3 732Z" stroke="#00354C" stroke-width="6" stroke-miterlimit="10" stroke-linecap="round" stroke-linejoin="round"/>
<path d="M643 454.2C641.1 434.7 631.5 385.4 620.7 350.9C603.5 295.8 583.3 281.4 571.6 279.9C570.4 279.7 567.8 279.7 567.8 279.7C567.8 279.7 565.3 279.7 564 279.9C552.3 281.3 532.2 295.6 514.9 350.8C504.1 385.3 494.6 434.7 492.6 454.3C488.3 498.3 509.4 522.6 536.8 526.1C544.6 527.1 560 527.1 567.8 527.1C575.5 527.1 590.9 527.1 598.8 526.1C626.1 522.5 647.3 498.2 643 454.2Z" fill="white"/>
<path d="M567.8 494.5C578.238 494.5 586.7 487.829 586.7 479.6C586.7 471.371 578.238 464.7 567.8 464.7C557.362 464.7 548.9 471.371 548.9 479.6C548.9 487.829 557.362 494.5 567.8 494.5Z" fill="#D1D1D1"/>
<path d="M550.5 285.5C550.5 285.5 541.5 319.4 522.7 329.2C527.5 318.4 534 305.5 534 305.5C534 305.5 545.2 287 550.5 285.5Z" fill="#D1D1D1"/>
<path d="M571.6 280C571.6 280 596 322 616.3 338.1C616.3 338.1 611.7 308.3 607.2 299.3C602.7 290.3 580.7 277.2 571.6 280Z" fill="#D1D1D1"/>
<path d="M519.8 441.3C559.1 424.4 582.6 391.1 572.2 367C564.9 350.1 542.9 342.2 516.9 344.8C516.3 346.7 515.6 348.7 515 350.8C505 382.8 496.1 427.5 493.3 449.4C501.9 447.8 510.9 445.2 519.8 441.3Z" fill="#F7BF46"/>
<path d="M624.1 487.1C612.9 503.4 588.4 514.4 562.3 514.4C538.1 514.4 523.6 500.2 515.1 482.5" stroke="#00354C" stroke-width="6" stroke-miterlimit="10" stroke-linecap="round" stroke-linejoin="round"/>
<path d="M567.8 489.2C580.889 489.2 591.5 483.738 591.5 477C591.5 470.262 580.889 464.8 567.8 464.8C554.71 464.8 544.1 470.262 544.1 477C544.1 483.738 554.71 489.2 567.8 489.2Z" fill="#00354C"/>
<path d="M697.9 777.9C682.7 763.6 653.5 756.5 625 758.7C600.6 760.5 582.5 768.8 575.4 779.8C574.2 781.7 575.7 784.2 578 784.2H693.5C698 784.2 700.7 780.5 697.9 777.9Z" fill="white"/>
<path d="M697.1 777.7C696.8 777.8 696.4 777.9 696 777.9H580.5C579.1 777.9 577.9 777.6 577 777C576.7 777.3 576.3 777.6 576 777.9C573.2 780.5 575.9 784.2 580.5 784.2H696C698.3 784.2 699.8 781.6 698.6 779.8C698.1 779 697.6 778.3 697.1 777.7Z" fill="#D1D1D1"/>
<path d="M697.9 777.9C682.7 763.6 653.5 756.5 625 758.7C600.6 760.5 582.5 768.8 575.4 779.8C574.2 781.7 575.7 784.2 578 784.2H693.5C698 784.2 700.7 780.5 697.9 777.9Z" stroke="#00354C" stroke-width="6" stroke-miterlimit="10" stroke-linecap="round" stroke-linejoin="round"/>
<path d="M635.4 773V784" stroke="#00354C" stroke-width="6" stroke-miterlimit="10" stroke-linecap="round" stroke-linejoin="round"/>
<path d="M441 777.9C456.2 763.6 485.4 756.5 513.9 758.7C538.3 760.5 556.4 768.8 563.5 779.8C564.7 781.7 563.2 784.2 560.9 784.2H445.4C440.9 784.2 438.2 780.5 441 777.9Z" fill="white"/>
<path d="M562.1 777.7C561.8 777.8 561.4 777.9 561 777.9H445.5C444.1 777.9 442.9 777.6 442 777C441.7 777.3 441.3 777.6 441 777.9C438.2 780.5 440.9 784.2 445.5 784.2H561C563.3 784.2 564.8 781.6 563.6 779.8C563.1 779 562.6 778.3 562.1 777.7Z" fill="#D1D1D1"/>
<path d="M441 777.9C456.2 763.6 485.4 756.5 513.9 758.7C538.3 760.5 556.4 768.8 563.5 779.8C564.7 781.7 563.2 784.2 560.9 784.2H445.4C440.9 784.2 438.2 780.5 441 777.9Z" stroke="#00354C" stroke-width="6" stroke-miterlimit="10" stroke-linecap="round" stroke-linejoin="round"/>
<path d="M643 454.2C641.1 434.7 631.5 385.4 620.7 350.9C603.5 295.8 583.3 281.4 571.6 279.9C570.4 279.7 567.8 279.7 567.8 279.7C567.8 279.7 565.3 279.7 564 279.9C552.3 281.3 532.2 295.6 514.9 350.8C504.1 385.3 494.6 434.7 492.6 454.3C488.3 498.3 509.4 522.6 536.8 526.1C544.6 527.1 560 527.1 567.8 527.1C575.5 527.1 590.9 527.1 598.8 526.1C626.1 522.5 647.3 498.2 643 454.2Z" stroke="#00354C" stroke-width="6" stroke-miterlimit="10" stroke-linecap="round" stroke-linejoin="round"/>
<path d="M569.8 279.5C569.8 279.5 604.7 272.1 614.3 276.6C624.2 281.2 642.1 316.3 634.7 330C623.4 351 590.2 275 569.8 279.5Z" fill="white"/>
<path d="M569.8 279.5C569.8 279.5 604.7 272.1 614.3 276.6C624.2 281.2 642.1 316.3 634.7 330C623.4 351 590.2 275 569.8 279.5Z" stroke="#00354C" stroke-width="6" stroke-miterlimit="10" stroke-linecap="round" stroke-linejoin="round"/>
<path d="M504.3 285.8L552.6 284.4C552.6 284.4 507.8 332.6 487.1 343C466.4 353.4 487.6 285.7 504.3 285.8Z" fill="white"/>
<path d="M504.3 285.8L552.6 284.4C552.6 284.4 507.8 332.6 487.1 343C466.4 353.4 487.6 285.7 504.3 285.8Z" stroke="#00354C" stroke-width="6" stroke-miterlimit="10" stroke-linecap="round" stroke-linejoin="round"/>
<path d="M548.7 394C551.461 394 553.7 391.09 553.7 387.5C553.7 383.91 551.461 381 548.7 381C545.938 381 543.7 383.91 543.7 387.5C543.7 391.09 545.938 394 548.7 394Z" fill="#00354C"/>
<path d="M590.9 394C593.661 394 595.9 391.09 595.9 387.5C595.9 383.91 593.661 381 590.9 381C588.138 381 585.9 383.91 585.9 387.5C585.9 391.09 588.138 394 590.9 394Z" fill="#00354C"/>
<path d="M392.3 784.2H739" stroke="#00354C" stroke-width="6" stroke-miterlimit="10" stroke-linecap="round" stroke-linejoin="round"/>
<path d="M668.2 347C668.2 352.6 666.8 355.9 661.2 355.9C655.6 355.9 651.1 353.8 651.1 348.2C651.1 342.6 655.6 338.1 661.2 338.1C666.8 338.1 668.2 341.4 668.2 347Z" fill="#F7BF46"/>
<path d="M183 784H194.5" stroke="#00354C" stroke-width="6" stroke-miterlimit="10" stroke-linecap="round" stroke-linejoin="round"/>
<path d="M759.5 784H800.8" stroke="#00354C" stroke-width="6" stroke-miterlimit="10" stroke-linecap="round" stroke-linejoin="round"/>
<path d="M215.5 784H298.2" stroke="#00354C" stroke-width="6" stroke-miterlimit="10" stroke-linecap="round" stroke-linejoin="round"/>
</g>
<defs>
<clipPath id="clip0_8_1381">
<rect width="1000" height="1000" fill="white"/>
</clipPath>
</defs>
</svg>
