<svg width="390" height="297" viewBox="0 0 390 297" fill="none" xmlns="http://www.w3.org/2000/svg">
<g clip-path="url(#clip0_9_1978)">
<path d="M55.709 175.372C69.3575 175.372 80.4218 164.328 80.4218 150.704C80.4218 137.08 69.3575 126.036 55.709 126.036C42.0604 126.036 30.9961 137.08 30.9961 150.704C30.9961 164.328 42.0604 175.372 55.709 175.372Z" fill="#FF6584"/>
<path d="M106.318 290.038H106.293C105.423 290.037 104.588 289.691 103.973 289.077C103.358 288.463 103.012 287.63 103.011 286.762V94.4309C103.012 93.5623 103.358 92.7296 103.973 92.1154C104.588 91.5012 105.423 91.1557 106.293 91.1547H268.471C269.341 91.1557 270.176 91.5012 270.791 92.1154C271.406 92.7296 271.752 93.5623 271.753 94.4309V243.979C271.752 244.843 271.41 245.672 270.8 246.285C270.19 246.899 269.362 247.247 268.497 247.255L106.318 290.038Z" fill="#F2F2F2"/>
<path d="M226.189 63.9817H150.892V20.4279C150.893 19.5082 151.26 18.6265 151.911 17.9762C152.563 17.3259 153.446 16.9601 154.367 16.959H222.714C223.635 16.9601 224.519 17.3259 225.17 17.9762C225.822 18.6265 226.188 19.5082 226.189 20.4279V63.9817ZM151.664 63.2109H225.417V20.4279C225.416 19.7126 225.131 19.0268 224.624 18.521C224.118 18.0152 223.431 17.7307 222.714 17.7299H154.367C153.651 17.7307 152.964 18.0152 152.457 18.521C151.95 19.0268 151.665 19.7126 151.664 20.4279V63.2109Z" fill="#3F3D56"/>
<path d="M172.323 33.5326H204.758C205.577 33.5326 206.363 33.8575 206.942 34.4357C207.522 35.014 207.847 35.7983 207.847 36.6161V82.8679H169.233V36.6161C169.233 35.7983 169.559 35.014 170.138 34.4357C170.718 33.8575 171.503 33.5326 172.323 33.5326Z" fill="#E6E6E6"/>
<path d="M178.694 17.7299H162.862V1.92716C162.863 1.41623 163.066 0.926384 163.428 0.565098C163.79 0.203812 164.281 0.000584528 164.793 0H176.763C177.275 0.000584528 177.766 0.203812 178.128 0.565098C178.49 0.926384 178.693 1.41623 178.694 1.92716V17.7299ZM163.635 16.959H177.922V1.92716C177.921 1.62059 177.799 1.32668 177.582 1.10991C177.365 0.89313 177.07 0.771199 176.763 0.770864H164.793C164.486 0.771199 164.191 0.89313 163.974 1.10991C163.757 1.32668 163.635 1.62059 163.635 1.92716V16.959Z" fill="#3F3D56"/>
<path d="M308.788 250.084C308.634 250.084 308.484 250.084 308.33 250.08C298.778 249.974 289.592 246.391 282.5 240.002C282.238 239.764 281.978 239.522 281.72 239.278L281.6 239.164V165.295L281.637 165.217C281.893 164.676 282.152 164.143 282.411 163.61C290.443 147.333 299.81 138.37 308.788 138.37C321.735 138.37 331.776 156.098 336.609 166.665C343.33 181.359 348.024 199.567 348.024 210.943C348.021 221.249 343.946 231.139 336.685 238.466C329.424 245.792 319.561 249.966 309.236 250.08C309.092 250.084 308.938 250.084 308.788 250.084ZM282.372 238.833C282.586 239.035 282.802 239.234 283.018 239.431C289.972 245.694 298.979 249.207 308.344 249.309C308.501 249.313 308.649 249.309 308.798 249.313C308.939 249.313 309.082 249.313 309.222 249.309C330.194 249.077 347.251 231.866 347.251 210.943C347.251 199.666 342.586 181.589 335.907 166.985C331.151 156.586 321.303 139.141 308.788 139.141C300.12 139.141 290.999 147.951 283.105 163.948C282.86 164.451 282.615 164.956 282.372 165.468L282.372 238.833Z" fill="#3F3D56"/>
<path d="M308.786 296.817C308.668 296.817 308.555 296.77 308.472 296.687C308.389 296.604 308.342 296.491 308.342 296.373V205.847C308.341 205.789 308.353 205.731 308.375 205.677C308.397 205.623 308.43 205.574 308.471 205.532C308.512 205.491 308.561 205.458 308.615 205.435C308.67 205.413 308.728 205.401 308.786 205.401C308.845 205.401 308.903 205.413 308.957 205.435C309.011 205.458 309.06 205.491 309.101 205.532C309.142 205.574 309.175 205.623 309.197 205.677C309.219 205.731 309.231 205.789 309.23 205.847V296.373C309.23 296.491 309.183 296.604 309.1 296.687C309.017 296.77 308.904 296.817 308.786 296.817Z" fill="#CCCCCC"/>
<path d="M78.2616 296.817C78.1438 296.817 78.0308 296.77 77.9475 296.687C77.8642 296.604 77.8174 296.491 77.8174 296.373V205.847C77.817 205.789 77.8283 205.731 77.8504 205.677C77.8726 205.623 77.9053 205.574 77.9466 205.532C77.9879 205.491 78.037 205.458 78.091 205.435C78.1451 205.413 78.2031 205.401 78.2616 205.401C78.3202 205.401 78.3782 205.413 78.4323 205.435C78.4863 205.458 78.5354 205.491 78.5767 205.532C78.618 205.574 78.6507 205.623 78.6728 205.677C78.695 205.731 78.7062 205.789 78.7059 205.847V296.373C78.7059 296.491 78.6591 296.604 78.5758 296.687C78.4925 296.77 78.3795 296.817 78.2616 296.817Z" fill="#CCCCCC"/>
<path d="M308.786 222.761C308.723 222.761 308.66 222.747 308.602 222.721C308.544 222.695 308.492 222.656 308.45 222.608L286.107 196.888C286.03 196.799 285.992 196.683 286 196.566C286.009 196.449 286.063 196.34 286.152 196.263C286.241 196.186 286.357 196.147 286.474 196.156C286.592 196.164 286.701 196.218 286.778 196.307L309.122 222.027C309.178 222.091 309.214 222.17 309.226 222.254C309.238 222.338 309.226 222.424 309.19 222.501C309.155 222.579 309.098 222.644 309.026 222.69C308.955 222.736 308.872 222.761 308.786 222.761V222.761Z" fill="#CCCCCC"/>
<path d="M308.786 237.604C308.698 237.604 308.612 237.578 308.539 237.529C308.466 237.481 308.409 237.412 308.376 237.33C308.342 237.249 308.333 237.16 308.35 237.074C308.367 236.988 308.41 236.909 308.472 236.847L321.168 224.174C321.251 224.092 321.364 224.045 321.482 224.045C321.599 224.045 321.712 224.092 321.795 224.175C321.878 224.258 321.925 224.371 321.925 224.488C321.925 224.606 321.879 224.718 321.796 224.801L309.1 237.474C309.059 237.516 309.01 237.548 308.956 237.571C308.902 237.593 308.844 237.604 308.786 237.604Z" fill="#CCCCCC"/>
<path d="M349.89 297H316.68V296.615C316.679 294.437 317.107 292.281 317.941 290.269C318.775 288.257 319.998 286.429 321.54 284.889C323.082 283.349 324.913 282.128 326.928 281.294C328.943 280.461 331.103 280.032 333.285 280.032C335.466 280.032 337.626 280.461 339.641 281.294C341.656 282.128 343.487 283.349 345.029 284.889C346.571 286.429 347.794 288.257 348.628 290.269C349.462 292.281 349.891 294.437 349.89 296.615L349.89 297ZM317.457 296.229H349.113C349.012 292.106 347.3 288.185 344.343 285.304C341.385 282.423 337.417 280.811 333.285 280.811C329.152 280.811 325.184 282.423 322.227 285.304C319.269 288.185 317.557 292.106 317.457 296.229H317.457Z" fill="#3F3D56"/>
<path d="M333.284 287.207C333.168 287.207 333.057 287.253 332.974 287.336C332.892 287.418 332.846 287.529 332.846 287.645V292.293L328.31 288.407C328.266 288.369 328.215 288.341 328.161 288.322C328.106 288.304 328.048 288.297 327.991 288.302C327.933 288.306 327.877 288.322 327.826 288.348C327.774 288.374 327.728 288.409 327.691 288.453C327.653 288.497 327.625 288.547 327.607 288.602C327.589 288.657 327.582 288.714 327.586 288.772C327.591 288.829 327.606 288.885 327.633 288.936C327.659 288.988 327.695 289.033 327.739 289.071L332.846 293.446V296.177C332.846 296.235 332.857 296.292 332.879 296.345C332.901 296.398 332.933 296.446 332.974 296.487C333.015 296.528 333.063 296.56 333.116 296.582C333.169 296.604 333.227 296.616 333.284 296.616C333.342 296.616 333.399 296.604 333.452 296.582C333.506 296.56 333.554 296.528 333.595 296.487C333.635 296.446 333.668 296.398 333.69 296.345C333.712 296.292 333.723 296.235 333.723 296.177V287.645C333.723 287.529 333.676 287.418 333.594 287.336C333.512 287.253 333.401 287.207 333.284 287.207Z" fill="#3F3D56"/>
<path d="M71.4834 297H38.2734V296.615C38.2724 294.437 38.7011 292.281 39.5351 290.269C40.3691 288.257 41.5921 286.429 43.1341 284.889C44.6761 283.349 46.507 282.128 48.5221 281.294C50.5372 280.461 52.6971 280.032 54.8784 280.032C57.0597 280.032 59.2196 280.461 61.2347 281.294C63.2498 282.128 65.0807 283.349 66.6227 284.889C68.1647 286.429 69.3877 288.257 70.2217 290.269C71.0557 292.281 71.4844 294.437 71.4833 296.615L71.4834 297ZM39.0504 296.229H70.7065C70.6057 292.106 68.8938 288.185 65.9365 285.304C62.9791 282.423 59.0106 280.811 54.8784 280.811C50.7462 280.811 46.7776 282.423 43.8203 285.304C40.8629 288.185 39.1511 292.106 39.0503 296.229H39.0504Z" fill="#3F3D56"/>
<path d="M54.8785 287.207C54.7622 287.207 54.6507 287.253 54.5685 287.336C54.4863 287.418 54.4401 287.529 54.4401 287.645V292.293L49.9039 288.407C49.8603 288.369 49.8096 288.341 49.7549 288.322C49.7001 288.304 49.6423 288.297 49.5848 288.302C49.5273 288.306 49.4712 288.322 49.4198 288.348C49.3683 288.374 49.3225 288.409 49.285 288.453C49.2474 288.497 49.2188 288.547 49.2009 288.602C49.183 288.657 49.1761 288.714 49.1805 288.772C49.185 288.829 49.2007 288.885 49.2268 288.936C49.253 288.988 49.289 289.033 49.3328 289.071L54.4401 293.446V296.177C54.4399 296.235 54.4512 296.292 54.4731 296.345C54.4951 296.398 54.5273 296.446 54.5681 296.487C54.6088 296.528 54.6572 296.56 54.7104 296.582C54.7637 296.604 54.8208 296.616 54.8785 296.616C54.9362 296.616 54.9933 296.604 55.0465 296.582C55.0998 296.56 55.1482 296.528 55.1889 296.487C55.2296 296.446 55.2619 296.398 55.2839 296.345C55.3058 296.292 55.317 296.235 55.3169 296.177V287.645C55.3168 287.529 55.2707 287.418 55.1884 287.336C55.1062 287.253 54.9947 287.207 54.8785 287.207Z" fill="#3F3D56"/>
<path d="M78.6496 250.084C78.4957 250.084 78.3459 250.084 78.192 250.08C67.8687 249.964 58.0076 245.789 50.7475 238.463C43.4874 231.136 39.4138 221.248 39.4102 210.943C39.4102 199.566 44.1041 181.358 50.825 166.665C55.6583 156.098 65.7003 138.37 78.6496 138.37C83.9834 138.37 89.3543 141.405 94.6132 147.39C94.874 147.685 95.1353 147.989 95.393 148.3L95.4813 148.407V246.302L95.2635 246.407C95.0037 246.532 94.74 246.65 94.4763 246.764C89.6303 248.905 84.3969 250.033 79.0978 250.08C78.9536 250.084 78.7996 250.084 78.6496 250.084ZM78.6496 139.141C66.1322 139.141 56.2839 156.586 51.5275 166.985C44.8477 181.589 40.1824 199.665 40.1824 210.943C40.1824 231.863 57.2397 249.073 78.206 249.309C78.3622 249.313 78.5079 249.314 78.6598 249.313C78.8 249.313 78.9437 249.313 79.0837 249.309C84.281 249.264 89.4139 248.158 94.1668 246.058C94.349 245.979 94.5299 245.899 94.709 245.816V148.685C94.4855 148.417 94.2594 148.155 94.0333 147.899C88.9268 142.087 83.7512 139.141 78.6496 139.141Z" fill="#3F3D56"/>
<path d="M78.6477 222.761C78.584 222.761 78.521 222.747 78.4631 222.721C78.4051 222.695 78.3535 222.656 78.3118 222.608L55.9684 196.888C55.8915 196.799 55.853 196.683 55.8615 196.566C55.87 196.449 55.9247 196.34 56.0136 196.263C56.1025 196.186 56.2184 196.147 56.3358 196.156C56.4532 196.164 56.5625 196.218 56.6398 196.307L78.9832 222.027C79.039 222.091 79.0751 222.17 79.0872 222.254C79.0993 222.338 79.087 222.424 79.0516 222.501C79.0163 222.579 78.9594 222.644 78.8878 222.69C78.8162 222.736 78.7329 222.761 78.6477 222.761V222.761Z" fill="#CCCCCC"/>
<path d="M78.6473 237.604C78.5595 237.604 78.4736 237.578 78.4005 237.529C78.3275 237.481 78.2706 237.412 78.2369 237.33C78.2033 237.249 78.1945 237.16 78.2117 237.074C78.2288 236.988 78.2711 236.909 78.3332 236.847L91.0291 224.174C91.1125 224.092 91.2254 224.045 91.343 224.045C91.4606 224.045 91.5733 224.092 91.6565 224.175C91.7396 224.258 91.7864 224.371 91.7866 224.488C91.7867 224.606 91.7403 224.718 91.6573 224.801L78.9615 237.474C78.9203 237.516 78.8713 237.548 78.8174 237.571C78.7635 237.593 78.7057 237.604 78.6473 237.604Z" fill="#CCCCCC"/>
<path d="M113.537 67.0652L113.823 67.6279C113.95 67.8707 114.016 68.1404 114.016 68.4142V83.6388H127.531V68.4142C127.531 68.1404 127.597 67.8707 127.724 67.6279L128.01 67.0652H113.537ZM126.758 68.4142V82.8679H114.788V68.4142C114.788 68.2194 114.765 68.0253 114.719 67.8361H126.828C126.782 68.0253 126.758 68.2194 126.758 68.4142ZM130.527 67.0652L130.813 67.6279C130.94 67.8707 131.006 68.1404 131.006 68.4142V83.6388H144.521V68.4142C144.521 68.1404 144.587 67.8707 144.714 67.6279L145 67.0652H130.527ZM143.749 68.4142V82.8679H131.778V68.4142C131.779 68.2194 131.755 68.0253 131.709 67.8361H143.818C143.772 68.0253 143.748 68.2194 143.749 68.4142ZM147.517 67.0652L147.803 67.6279C147.93 67.8707 147.996 68.1404 147.996 68.4142V83.6388H161.511V68.4142C161.511 68.1404 161.577 67.8707 161.704 67.6279L161.99 67.0652H147.517ZM160.739 68.4142V82.8679H148.768V68.4142C148.769 68.2194 148.745 68.0253 148.699 67.8361H160.808C160.762 68.0253 160.738 68.2194 160.739 68.4142ZM164.507 67.0652L164.793 67.6279C164.92 67.8707 164.986 68.1404 164.986 68.4142V83.6388H178.501V68.4142C178.501 68.1404 178.567 67.8707 178.694 67.6279L178.98 67.0652H164.507ZM177.729 68.4142V82.8679H165.759V68.4142C165.759 68.2194 165.735 68.0253 165.689 67.8361H177.798C177.752 68.0253 177.729 68.2194 177.729 68.4142ZM181.497 67.0652L181.783 67.6279C181.91 67.8707 181.976 68.1404 181.976 68.4142V83.6388H195.491V68.4142C195.491 68.1404 195.558 67.8707 195.684 67.6279L195.97 67.0652H181.497ZM194.719 68.4142V82.8679H182.749V68.4142C182.749 68.2194 182.725 68.0253 182.679 67.8361H194.788C194.742 68.0253 194.719 68.2194 194.719 68.4142ZM198.488 67.0652L198.773 67.6279C198.9 67.8707 198.966 68.1404 198.966 68.4142V83.6388H212.481V68.4142C212.481 68.1404 212.548 67.8707 212.674 67.6279L212.96 67.0652H198.488ZM211.709 68.4142V82.8679H199.739V68.4142C199.739 68.2194 199.716 68.0253 199.669 67.8361H211.779C211.732 68.0253 211.709 68.2194 211.709 68.4142ZM215.478 67.0652L215.763 67.6279C215.89 67.8707 215.956 68.1404 215.957 68.4142V83.6388H229.471V68.4142C229.472 68.1404 229.538 67.8707 229.664 67.6279L229.95 67.0652H215.478ZM228.699 68.4142V82.8679H216.729V68.4142C216.729 68.2194 216.706 68.0253 216.659 67.8361H228.769C228.722 68.0253 228.699 68.2194 228.699 68.4142ZM232.468 67.0652L232.754 67.6279C232.88 67.8707 232.946 68.1404 232.947 68.4142V83.6388H246.461V68.4142C246.462 68.1404 246.528 67.8707 246.655 67.6279L246.94 67.0652H232.468ZM245.689 68.4142V82.8679H233.719V68.4142C233.719 68.2194 233.696 68.0253 233.649 67.8361H245.759C245.712 68.0253 245.689 68.2194 245.689 68.4142ZM249.458 67.0652L249.744 67.6279C249.87 67.8707 249.937 68.1404 249.937 68.4142V83.6388H263.452V68.4142C263.452 68.1404 263.518 67.8707 263.645 67.6279L263.93 67.0652H249.458ZM262.679 68.4142V82.8679H250.709V68.4142C250.709 68.2194 250.686 68.0253 250.639 67.8361H262.749C262.702 68.0253 262.679 68.2194 262.679 68.4142ZM249.458 67.0652L249.744 67.6279C249.87 67.8707 249.937 68.1404 249.937 68.4142V83.6388H263.452V68.4142C263.452 68.1404 263.518 67.8707 263.645 67.6279L263.93 67.0652H249.458ZM262.679 68.4142V82.8679H250.709V68.4142C250.709 68.2194 250.686 68.0253 250.639 67.8361H262.749C262.702 68.0253 262.679 68.2194 262.679 68.4142ZM232.468 67.0652L232.754 67.6279C232.88 67.8707 232.946 68.1404 232.947 68.4142V83.6388H246.461V68.4142C246.462 68.1404 246.528 67.8707 246.655 67.6279L246.94 67.0652H232.468ZM245.689 68.4142V82.8679H233.719V68.4142C233.719 68.2194 233.696 68.0253 233.649 67.8361H245.759C245.712 68.0253 245.689 68.2194 245.689 68.4142ZM215.478 67.0652L215.763 67.6279C215.89 67.8707 215.956 68.1404 215.957 68.4142V83.6388H229.471V68.4142C229.472 68.1404 229.538 67.8707 229.664 67.6279L229.95 67.0652H215.478ZM228.699 68.4142V82.8679H216.729V68.4142C216.729 68.2194 216.706 68.0253 216.659 67.8361H228.769C228.722 68.0253 228.699 68.2194 228.699 68.4142ZM198.488 67.0652L198.773 67.6279C198.9 67.8707 198.966 68.1404 198.966 68.4142V83.6388H212.481V68.4142C212.481 68.1404 212.548 67.8707 212.674 67.6279L212.96 67.0652H198.488ZM211.709 68.4142V82.8679H199.739V68.4142C199.739 68.2194 199.716 68.0253 199.669 67.8361H211.779C211.732 68.0253 211.709 68.2194 211.709 68.4142ZM181.497 67.0652L181.783 67.6279C181.91 67.8707 181.976 68.1404 181.976 68.4142V83.6388H195.491V68.4142C195.491 68.1404 195.558 67.8707 195.684 67.6279L195.97 67.0652H181.497ZM194.719 68.4142V82.8679H182.749V68.4142C182.749 68.2194 182.725 68.0253 182.679 67.8361H194.788C194.742 68.0253 194.719 68.2194 194.719 68.4142ZM164.507 67.0652L164.793 67.6279C164.92 67.8707 164.986 68.1404 164.986 68.4142V83.6388H178.501V68.4142C178.501 68.1404 178.567 67.8707 178.694 67.6279L178.98 67.0652H164.507ZM177.729 68.4142V82.8679H165.759V68.4142C165.759 68.2194 165.735 68.0253 165.689 67.8361H177.798C177.752 68.0253 177.729 68.2194 177.729 68.4142ZM147.517 67.0652L147.803 67.6279C147.93 67.8707 147.996 68.1404 147.996 68.4142V83.6388H161.511V68.4142C161.511 68.1404 161.577 67.8707 161.704 67.6279L161.99 67.0652H147.517ZM160.739 68.4142V82.8679H148.768V68.4142C148.769 68.2194 148.745 68.0253 148.699 67.8361H160.808C160.762 68.0253 160.738 68.2194 160.739 68.4142ZM130.527 67.0652L130.813 67.6279C130.94 67.8707 131.006 68.1404 131.006 68.4142V83.6388H144.521V68.4142C144.521 68.1404 144.587 67.8707 144.714 67.6279L145 67.0652H130.527ZM143.749 68.4142V82.8679H131.778V68.4142C131.779 68.2194 131.755 68.0253 131.709 67.8361H143.818C143.772 68.0253 143.748 68.2194 143.749 68.4142ZM113.537 67.0652L113.823 67.6279C113.95 67.8707 114.016 68.1404 114.016 68.4142V83.6388H127.531V68.4142C127.531 68.1404 127.597 67.8707 127.724 67.6279L128.01 67.0652H113.537ZM126.758 68.4142V82.8679H114.788V68.4142C114.788 68.2194 114.765 68.0253 114.719 67.8361H126.828C126.782 68.0253 126.758 68.2194 126.758 68.4142ZM249.458 67.0652L249.744 67.6279C249.87 67.8707 249.937 68.1404 249.937 68.4142V83.6388H263.452V68.4142C263.452 68.1404 263.518 67.8707 263.645 67.6279L263.93 67.0652H249.458ZM262.679 68.4142V82.8679H250.709V68.4142C250.709 68.2194 250.686 68.0253 250.639 67.8361H262.749C262.702 68.0253 262.679 68.2194 262.679 68.4142ZM232.468 67.0652L232.754 67.6279C232.88 67.8707 232.946 68.1404 232.947 68.4142V83.6388H246.461V68.4142C246.462 68.1404 246.528 67.8707 246.655 67.6279L246.94 67.0652H232.468ZM245.689 68.4142V82.8679H233.719V68.4142C233.719 68.2194 233.696 68.0253 233.649 67.8361H245.759C245.712 68.0253 245.689 68.2194 245.689 68.4142ZM215.478 67.0652L215.763 67.6279C215.89 67.8707 215.956 68.1404 215.957 68.4142V83.6388H229.471V68.4142C229.472 68.1404 229.538 67.8707 229.664 67.6279L229.95 67.0652H215.478ZM228.699 68.4142V82.8679H216.729V68.4142C216.729 68.2194 216.706 68.0253 216.659 67.8361H228.769C228.722 68.0253 228.699 68.2194 228.699 68.4142ZM198.488 67.0652L198.773 67.6279C198.9 67.8707 198.966 68.1404 198.966 68.4142V83.6388H212.481V68.4142C212.481 68.1404 212.548 67.8707 212.674 67.6279L212.96 67.0652H198.488ZM211.709 68.4142V82.8679H199.739V68.4142C199.739 68.2194 199.716 68.0253 199.669 67.8361H211.779C211.732 68.0253 211.709 68.2194 211.709 68.4142ZM181.497 67.0652L181.783 67.6279C181.91 67.8707 181.976 68.1404 181.976 68.4142V83.6388H195.491V68.4142C195.491 68.1404 195.558 67.8707 195.684 67.6279L195.97 67.0652H181.497ZM194.719 68.4142V82.8679H182.749V68.4142C182.749 68.2194 182.725 68.0253 182.679 67.8361H194.788C194.742 68.0253 194.719 68.2194 194.719 68.4142ZM164.507 67.0652L164.793 67.6279C164.92 67.8707 164.986 68.1404 164.986 68.4142V83.6388H178.501V68.4142C178.501 68.1404 178.567 67.8707 178.694 67.6279L178.98 67.0652H164.507ZM177.729 68.4142V82.8679H165.759V68.4142C165.759 68.2194 165.735 68.0253 165.689 67.8361H177.798C177.752 68.0253 177.729 68.2194 177.729 68.4142ZM147.517 67.0652L147.803 67.6279C147.93 67.8707 147.996 68.1404 147.996 68.4142V83.6388H161.511V68.4142C161.511 68.1404 161.577 67.8707 161.704 67.6279L161.99 67.0652H147.517ZM160.739 68.4142V82.8679H148.768V68.4142C148.769 68.2194 148.745 68.0253 148.699 67.8361H160.808C160.762 68.0253 160.738 68.2194 160.739 68.4142ZM130.527 67.0652L130.813 67.6279C130.94 67.8707 131.006 68.1404 131.006 68.4142V83.6388H144.521V68.4142C144.521 68.1404 144.587 67.8707 144.714 67.6279L145 67.0652H130.527ZM143.749 68.4142V82.8679H131.778V68.4142C131.779 68.2194 131.755 68.0253 131.709 67.8361H143.818C143.772 68.0253 143.748 68.2194 143.749 68.4142ZM113.537 67.0652L113.823 67.6279C113.95 67.8707 114.016 68.1404 114.016 68.4142V83.6388H127.531V68.4142C127.531 68.1404 127.597 67.8707 127.724 67.6279L128.01 67.0652H113.537ZM126.758 68.4142V82.8679H114.788V68.4142C114.788 68.2194 114.765 68.0253 114.719 67.8361H126.828C126.782 68.0253 126.758 68.2194 126.758 68.4142ZM249.458 67.0652L249.744 67.6279C249.87 67.8707 249.937 68.1404 249.937 68.4142V83.6388H263.452V68.4142C263.452 68.1404 263.518 67.8707 263.645 67.6279L263.93 67.0652H249.458ZM262.679 68.4142V82.8679H250.709V68.4142C250.709 68.2194 250.686 68.0253 250.639 67.8361H262.749C262.702 68.0253 262.679 68.2194 262.679 68.4142ZM232.468 67.0652L232.754 67.6279C232.88 67.8707 232.946 68.1404 232.947 68.4142V83.6388H246.461V68.4142C246.462 68.1404 246.528 67.8707 246.655 67.6279L246.94 67.0652H232.468ZM245.689 68.4142V82.8679H233.719V68.4142C233.719 68.2194 233.696 68.0253 233.649 67.8361H245.759C245.712 68.0253 245.689 68.2194 245.689 68.4142ZM215.478 67.0652L215.763 67.6279C215.89 67.8707 215.956 68.1404 215.957 68.4142V83.6388H229.471V68.4142C229.472 68.1404 229.538 67.8707 229.664 67.6279L229.95 67.0652H215.478ZM228.699 68.4142V82.8679H216.729V68.4142C216.729 68.2194 216.706 68.0253 216.659 67.8361H228.769C228.722 68.0253 228.699 68.2194 228.699 68.4142ZM198.488 67.0652L198.773 67.6279C198.9 67.8707 198.966 68.1404 198.966 68.4142V83.6388H212.481V68.4142C212.481 68.1404 212.548 67.8707 212.674 67.6279L212.96 67.0652H198.488ZM211.709 68.4142V82.8679H199.739V68.4142C199.739 68.2194 199.716 68.0253 199.669 67.8361H211.779C211.732 68.0253 211.709 68.2194 211.709 68.4142ZM181.497 67.0652L181.783 67.6279C181.91 67.8707 181.976 68.1404 181.976 68.4142V83.6388H195.491V68.4142C195.491 68.1404 195.558 67.8707 195.684 67.6279L195.97 67.0652H181.497ZM194.719 68.4142V82.8679H182.749V68.4142C182.749 68.2194 182.725 68.0253 182.679 67.8361H194.788C194.742 68.0253 194.719 68.2194 194.719 68.4142ZM164.507 67.0652L164.793 67.6279C164.92 67.8707 164.986 68.1404 164.986 68.4142V83.6388H178.501V68.4142C178.501 68.1404 178.567 67.8707 178.694 67.6279L178.98 67.0652H164.507ZM177.729 68.4142V82.8679H165.759V68.4142C165.759 68.2194 165.735 68.0253 165.689 67.8361H177.798C177.752 68.0253 177.729 68.2194 177.729 68.4142ZM147.517 67.0652L147.803 67.6279C147.93 67.8707 147.996 68.1404 147.996 68.4142V83.6388H161.511V68.4142C161.511 68.1404 161.577 67.8707 161.704 67.6279L161.99 67.0652H147.517ZM160.739 68.4142V82.8679H148.768V68.4142C148.769 68.2194 148.745 68.0253 148.699 67.8361H160.808C160.762 68.0253 160.738 68.2194 160.739 68.4142ZM130.527 67.0652L130.813 67.6279C130.94 67.8707 131.006 68.1404 131.006 68.4142V83.6388H144.521V68.4142C144.521 68.1404 144.587 67.8707 144.714 67.6279L145 67.0652H130.527ZM143.749 68.4142V82.8679H131.778V68.4142C131.779 68.2194 131.755 68.0253 131.709 67.8361H143.818C143.772 68.0253 143.748 68.2194 143.749 68.4142ZM113.537 67.0652L113.823 67.6279C113.95 67.8707 114.016 68.1404 114.016 68.4142V83.6388H127.531V68.4142C127.531 68.1404 127.597 67.8707 127.724 67.6279L128.01 67.0652H113.537ZM126.758 68.4142V82.8679H114.788V68.4142C114.788 68.2194 114.765 68.0253 114.719 67.8361H126.828C126.782 68.0253 126.758 68.2194 126.758 68.4142ZM249.458 67.0652L249.744 67.6279C249.87 67.8707 249.937 68.1404 249.937 68.4142V83.6388H263.452V68.4142C263.452 68.1404 263.518 67.8707 263.645 67.6279L263.93 67.0652H249.458ZM262.679 68.4142V82.8679H250.709V68.4142C250.709 68.2194 250.686 68.0253 250.639 67.8361H262.749C262.702 68.0253 262.679 68.2194 262.679 68.4142ZM232.468 67.0652L232.754 67.6279C232.88 67.8707 232.946 68.1404 232.947 68.4142V83.6388H246.461V68.4142C246.462 68.1404 246.528 67.8707 246.655 67.6279L246.94 67.0652H232.468ZM245.689 68.4142V82.8679H233.719V68.4142C233.719 68.2194 233.696 68.0253 233.649 67.8361H245.759C245.712 68.0253 245.689 68.2194 245.689 68.4142ZM215.478 67.0652L215.763 67.6279C215.89 67.8707 215.956 68.1404 215.957 68.4142V83.6388H229.471V68.4142C229.472 68.1404 229.538 67.8707 229.664 67.6279L229.95 67.0652H215.478ZM228.699 68.4142V82.8679H216.729V68.4142C216.729 68.2194 216.706 68.0253 216.659 67.8361H228.769C228.722 68.0253 228.699 68.2194 228.699 68.4142ZM198.488 67.0652L198.773 67.6279C198.9 67.8707 198.966 68.1404 198.966 68.4142V83.6388H212.481V68.4142C212.481 68.1404 212.548 67.8707 212.674 67.6279L212.96 67.0652H198.488ZM211.709 68.4142V82.8679H199.739V68.4142C199.739 68.2194 199.716 68.0253 199.669 67.8361H211.779C211.732 68.0253 211.709 68.2194 211.709 68.4142ZM181.497 67.0652L181.783 67.6279C181.91 67.8707 181.976 68.1404 181.976 68.4142V83.6388H195.491V68.4142C195.491 68.1404 195.558 67.8707 195.684 67.6279L195.97 67.0652H181.497ZM194.719 68.4142V82.8679H182.749V68.4142C182.749 68.2194 182.725 68.0253 182.679 67.8361H194.788C194.742 68.0253 194.719 68.2194 194.719 68.4142ZM164.507 67.0652L164.793 67.6279C164.92 67.8707 164.986 68.1404 164.986 68.4142V83.6388H178.501V68.4142C178.501 68.1404 178.567 67.8707 178.694 67.6279L178.98 67.0652H164.507ZM177.729 68.4142V82.8679H165.759V68.4142C165.759 68.2194 165.735 68.0253 165.689 67.8361H177.798C177.752 68.0253 177.729 68.2194 177.729 68.4142ZM147.517 67.0652L147.803 67.6279C147.93 67.8707 147.996 68.1404 147.996 68.4142V83.6388H161.511V68.4142C161.511 68.1404 161.577 67.8707 161.704 67.6279L161.99 67.0652H147.517ZM160.739 68.4142V82.8679H148.768V68.4142C148.769 68.2194 148.745 68.0253 148.699 67.8361H160.808C160.762 68.0253 160.738 68.2194 160.739 68.4142ZM130.527 67.0652L130.813 67.6279C130.94 67.8707 131.006 68.1404 131.006 68.4142V83.6388H144.521V68.4142C144.521 68.1404 144.587 67.8707 144.714 67.6279L145 67.0652H130.527ZM143.749 68.4142V82.8679H131.778V68.4142C131.779 68.2194 131.755 68.0253 131.709 67.8361H143.818C143.772 68.0253 143.748 68.2194 143.749 68.4142ZM113.537 67.0652L113.823 67.6279C113.95 67.8707 114.016 68.1404 114.016 68.4142V83.6388H127.531V68.4142C127.531 68.1404 127.597 67.8707 127.724 67.6279L128.01 67.0652H113.537ZM126.758 68.4142V82.8679H114.788V68.4142C114.788 68.2194 114.765 68.0253 114.719 67.8361H126.828C126.782 68.0253 126.758 68.2194 126.758 68.4142ZM249.458 67.0652L249.744 67.6279C249.87 67.8707 249.937 68.1404 249.937 68.4142V83.6388H263.452V68.4142C263.452 68.1404 263.518 67.8707 263.645 67.6279L263.93 67.0652H249.458ZM262.679 68.4142V82.8679H250.709V68.4142C250.709 68.2194 250.686 68.0253 250.639 67.8361H262.749C262.702 68.0253 262.679 68.2194 262.679 68.4142ZM232.754 67.6279C232.88 67.8707 232.946 68.1404 232.947 68.4142V83.6388H246.461V68.4142C246.462 68.1404 246.528 67.8707 246.655 67.6279L246.94 67.0652H232.468L232.754 67.6279ZM245.759 67.8361C245.712 68.0253 245.689 68.2194 245.689 68.4142V82.8679H233.719V68.4142C233.719 68.2194 233.696 68.0253 233.649 67.8361H245.759ZM215.763 67.6279C215.89 67.8707 215.956 68.1404 215.957 68.4142V83.6388H229.471V68.4142C229.472 68.1404 229.538 67.8707 229.664 67.6279L229.95 67.0652H215.478L215.763 67.6279ZM228.769 67.8361C228.722 68.0253 228.699 68.2194 228.699 68.4142V82.8679H216.729V68.4142C216.729 68.2194 216.706 68.0253 216.659 67.8361H228.769ZM198.773 67.6279C198.9 67.8707 198.966 68.1404 198.966 68.4142V83.6388H212.481V68.4142C212.481 68.1404 212.548 67.8707 212.674 67.6279L212.96 67.0652H198.488L198.773 67.6279ZM211.779 67.8361C211.732 68.0253 211.709 68.2194 211.709 68.4142V82.8679H199.739V68.4142C199.739 68.2194 199.716 68.0253 199.669 67.8361H211.779ZM181.783 67.6279C181.91 67.8707 181.976 68.1404 181.976 68.4142V83.6388H195.491V68.4142C195.491 68.1404 195.558 67.8707 195.684 67.6279L195.97 67.0652H181.497L181.783 67.6279ZM194.788 67.8361C194.742 68.0253 194.719 68.2194 194.719 68.4142V82.8679H182.749V68.4142C182.749 68.2194 182.725 68.0253 182.679 67.8361H194.788ZM164.793 67.6279C164.92 67.8707 164.986 68.1404 164.986 68.4142V83.6388H178.501V68.4142C178.501 68.1404 178.567 67.8707 178.694 67.6279L178.98 67.0652H164.507L164.793 67.6279ZM177.798 67.8361C177.752 68.0253 177.729 68.2194 177.729 68.4142V82.8679H165.759V68.4142C165.759 68.2194 165.735 68.0253 165.689 67.8361H177.798ZM147.803 67.6279C147.93 67.8707 147.996 68.1404 147.996 68.4142V83.6388H161.511V68.4142C161.511 68.1404 161.577 67.8707 161.704 67.6279L161.99 67.0652H147.517L147.803 67.6279ZM160.808 67.8361C160.762 68.0253 160.738 68.2194 160.739 68.4142V82.8679H148.768V68.4142C148.769 68.2194 148.745 68.0253 148.699 67.8361H160.808ZM130.813 67.6279C130.94 67.8707 131.006 68.1404 131.006 68.4142V83.6388H144.521V68.4142C144.521 68.1404 144.587 67.8707 144.714 67.6279L145 67.0652H130.527L130.813 67.6279ZM143.818 67.8361C143.772 68.0253 143.748 68.2194 143.749 68.4142V82.8679H131.778V68.4142C131.779 68.2194 131.755 68.0253 131.709 67.8361H143.818ZM113.823 67.6279C113.95 67.8707 114.016 68.1404 114.016 68.4142V83.6388H127.531V68.4142C127.531 68.1404 127.597 67.8707 127.724 67.6279L128.01 67.0652H113.537L113.823 67.6279ZM126.828 67.8361C126.782 68.0253 126.758 68.2194 126.758 68.4142V82.8679H114.788V68.4142C114.788 68.2194 114.765 68.0253 114.719 67.8361H126.828ZM249.744 67.6279C249.87 67.8707 249.937 68.1404 249.937 68.4142V83.6388H263.452V68.4142C263.452 68.1404 263.518 67.8707 263.645 67.6279L263.93 67.0652H249.458L249.744 67.6279ZM262.749 67.8361C262.702 68.0253 262.679 68.2194 262.679 68.4142V82.8679H250.709V68.4142C250.709 68.2194 250.686 68.0253 250.639 67.8361H262.749ZM232.754 67.6279C232.88 67.8707 232.946 68.1404 232.947 68.4142V83.6388H246.461V68.4142C246.462 68.1404 246.528 67.8707 246.655 67.6279L246.94 67.0652H232.468L232.754 67.6279ZM245.759 67.8361C245.712 68.0253 245.689 68.2194 245.689 68.4142V82.8679H233.719V68.4142C233.719 68.2194 233.696 68.0253 233.649 67.8361H245.759ZM215.763 67.6279C215.89 67.8707 215.956 68.1404 215.957 68.4142V83.6388H229.471V68.4142C229.472 68.1404 229.538 67.8707 229.664 67.6279L229.95 67.0652H215.478L215.763 67.6279ZM228.769 67.8361C228.722 68.0253 228.699 68.2194 228.699 68.4142V82.8679H216.729V68.4142C216.729 68.2194 216.706 68.0253 216.659 67.8361H228.769ZM198.773 67.6279C198.9 67.8707 198.966 68.1404 198.966 68.4142V83.6388H212.481V68.4142C212.481 68.1404 212.548 67.8707 212.674 67.6279L212.96 67.0652H198.488L198.773 67.6279ZM211.779 67.8361C211.732 68.0253 211.709 68.2194 211.709 68.4142V82.8679H199.739V68.4142C199.739 68.2194 199.716 68.0253 199.669 67.8361H211.779ZM181.783 67.6279C181.91 67.8707 181.976 68.1404 181.976 68.4142V83.6388H195.491V68.4142C195.491 68.1404 195.558 67.8707 195.684 67.6279L195.97 67.0652H181.497L181.783 67.6279ZM194.788 67.8361C194.742 68.0253 194.719 68.2194 194.719 68.4142V82.8679H182.749V68.4142C182.749 68.2194 182.725 68.0253 182.679 67.8361H194.788ZM164.793 67.6279C164.92 67.8707 164.986 68.1404 164.986 68.4142V83.6388H178.501V68.4142C178.501 68.1404 178.567 67.8707 178.694 67.6279L178.98 67.0652H164.507L164.793 67.6279ZM177.798 67.8361C177.752 68.0253 177.729 68.2194 177.729 68.4142V82.8679H165.759V68.4142C165.759 68.2194 165.735 68.0253 165.689 67.8361H177.798ZM147.803 67.6279C147.93 67.8707 147.996 68.1404 147.996 68.4142V83.6388H161.511V68.4142C161.511 68.1404 161.577 67.8707 161.704 67.6279L161.99 67.0652H147.517L147.803 67.6279ZM160.808 67.8361C160.762 68.0253 160.738 68.2194 160.739 68.4142V82.8679H148.768V68.4142C148.769 68.2194 148.745 68.0253 148.699 67.8361H160.808ZM130.813 67.6279C130.94 67.8707 131.006 68.1404 131.006 68.4142V83.6388H144.521V68.4142C144.521 68.1404 144.587 67.8707 144.714 67.6279L145 67.0652H130.527L130.813 67.6279ZM143.818 67.8361C143.772 68.0253 143.748 68.2194 143.749 68.4142V82.8679H131.778V68.4142C131.779 68.2194 131.755 68.0253 131.709 67.8361H143.818ZM113.823 67.6279C113.95 67.8707 114.016 68.1404 114.016 68.4142V83.6388H127.531V68.4142C127.531 68.1404 127.597 67.8707 127.724 67.6279L128.01 67.0652H113.537L113.823 67.6279ZM126.828 67.8361C126.782 68.0253 126.758 68.2194 126.758 68.4142V82.8679H114.788V68.4142C114.788 68.2194 114.765 68.0253 114.719 67.8361H126.828ZM278.897 85.9514H274.294C274.041 85.0647 273.505 84.2845 272.768 83.7283C272.031 83.1721 271.133 82.8701 270.209 82.8679H267.699V68.4142C267.7 68.1039 267.641 67.7964 267.525 67.5084C267.963 67.2513 268.303 66.8575 268.494 66.388C268.686 65.9184 268.716 65.3991 268.582 64.9103C268.449 64.4214 268.157 63.9901 267.753 63.683C267.349 63.3759 266.855 63.21 266.348 63.2109H111.12C110.612 63.21 110.118 63.3759 109.714 63.683C109.31 63.9901 109.019 64.4214 108.885 64.9102C108.751 65.3991 108.782 65.9184 108.973 66.388C109.164 66.8575 109.505 67.2513 109.942 67.5084C109.826 67.7964 109.767 68.1039 109.768 68.4142V82.8679H107.258C106.335 82.8701 105.437 83.1721 104.7 83.7283C103.963 84.2845 103.427 85.0647 103.173 85.9514H98.1842C97.263 85.9528 96.3798 86.3187 95.7284 86.9689C95.077 87.6192 94.7104 88.5007 94.709 89.4203V292.928C94.711 293.848 95.0778 294.729 95.7291 295.379C96.3804 296.029 97.2632 296.395 98.1842 296.397H278.897C279.818 296.396 280.702 296.03 281.353 295.38C282.004 294.73 282.371 293.848 282.372 292.928V89.4203C282.371 88.5007 282.004 87.6192 281.353 86.9689C280.702 86.3187 279.818 85.9528 278.897 85.9514ZM281.6 292.928C281.599 293.479 281.43 294.017 281.115 294.469C280.799 294.921 280.353 295.265 279.836 295.457C279.536 295.571 279.218 295.628 278.897 295.626H98.1842C97.8636 295.628 97.5455 295.571 97.2459 295.457C96.7285 295.265 96.2821 294.921 95.9667 294.469C95.6513 294.017 95.4819 293.479 95.4813 292.928V89.4203C95.4821 88.705 95.7671 88.0192 96.2738 87.5134C96.7806 87.0075 97.4676 86.723 98.1842 86.7222H103.791L103.853 86.4139C104.015 85.6314 104.442 84.9286 105.062 84.4232C105.683 83.9179 106.458 83.6409 107.258 83.6388H110.541V68.4142C110.541 68.1006 110.626 67.7928 110.788 67.5239L111.027 67.1269L110.591 66.965C110.25 66.8416 109.963 66.6021 109.782 66.2886C109.6 65.9752 109.536 65.6078 109.599 65.2514C109.662 64.8949 109.849 64.5721 110.128 64.3398C110.406 64.1076 110.757 63.9808 111.12 63.9817H266.348C266.71 63.9808 267.062 64.1076 267.34 64.3398C267.618 64.5721 267.805 64.8949 267.869 65.2514C267.932 65.6078 267.867 65.9752 267.686 66.2886C267.504 66.6021 267.218 66.8416 266.877 66.965L266.44 67.1269L266.68 67.5239C266.841 67.7928 266.927 68.1006 266.927 68.4142V83.6388H270.209C271.01 83.6409 271.785 83.9179 272.405 84.4232C273.025 84.9285 273.452 85.6314 273.615 86.4139L273.676 86.7222H278.897C279.614 86.723 280.301 87.0075 280.808 87.5134C281.314 88.0192 281.599 88.705 281.6 89.4203L281.6 292.928ZM113.537 67.0652L113.823 67.6279C113.95 67.8707 114.016 68.1404 114.016 68.4142V83.6388H127.531V68.4142C127.531 68.1404 127.597 67.8707 127.724 67.6279L128.01 67.0652H113.537ZM126.758 68.4142V82.8679H114.788V68.4142C114.788 68.2194 114.765 68.0253 114.719 67.8361H126.828C126.782 68.0253 126.758 68.2194 126.758 68.4142ZM130.527 67.0652L130.813 67.6279C130.94 67.8707 131.006 68.1404 131.006 68.4142V83.6388H144.521V68.4142C144.521 68.1404 144.587 67.8707 144.714 67.6279L145 67.0652H130.527ZM143.749 68.4142V82.8679H131.778V68.4142C131.779 68.2194 131.755 68.0253 131.709 67.8361H143.818C143.772 68.0253 143.748 68.2194 143.749 68.4142ZM147.517 67.0652L147.803 67.6279C147.93 67.8707 147.996 68.1404 147.996 68.4142V83.6388H161.511V68.4142C161.511 68.1404 161.577 67.8707 161.704 67.6279L161.99 67.0652H147.517ZM160.739 68.4142V82.8679H148.768V68.4142C148.769 68.2194 148.745 68.0253 148.699 67.8361H160.808C160.762 68.0253 160.738 68.2194 160.739 68.4142ZM164.507 67.0652L164.793 67.6279C164.92 67.8707 164.986 68.1404 164.986 68.4142V83.6388H178.501V68.4142C178.501 68.1404 178.567 67.8707 178.694 67.6279L178.98 67.0652H164.507ZM177.729 68.4142V82.8679H165.759V68.4142C165.759 68.2194 165.735 68.0253 165.689 67.8361H177.798C177.752 68.0253 177.729 68.2194 177.729 68.4142ZM181.497 67.0652L181.783 67.6279C181.91 67.8707 181.976 68.1404 181.976 68.4142V83.6388H195.491V68.4142C195.491 68.1404 195.558 67.8707 195.684 67.6279L195.97 67.0652H181.497ZM194.719 68.4142V82.8679H182.749V68.4142C182.749 68.2194 182.725 68.0253 182.679 67.8361H194.788C194.742 68.0253 194.719 68.2194 194.719 68.4142ZM198.488 67.0652L198.773 67.6279C198.9 67.8707 198.966 68.1404 198.966 68.4142V83.6388H212.481V68.4142C212.481 68.1404 212.548 67.8707 212.674 67.6279L212.96 67.0652H198.488ZM211.709 68.4142V82.8679H199.739V68.4142C199.739 68.2194 199.716 68.0253 199.669 67.8361H211.779C211.732 68.0253 211.709 68.2194 211.709 68.4142ZM215.478 67.0652L215.763 67.6279C215.89 67.8707 215.956 68.1404 215.957 68.4142V83.6388H229.471V68.4142C229.472 68.1404 229.538 67.8707 229.664 67.6279L229.95 67.0652H215.478ZM228.699 68.4142V82.8679H216.729V68.4142C216.729 68.2194 216.706 68.0253 216.659 67.8361H228.769C228.722 68.0253 228.699 68.2194 228.699 68.4142ZM232.468 67.0652L232.754 67.6279C232.88 67.8707 232.946 68.1404 232.947 68.4142V83.6388H246.461V68.4142C246.462 68.1404 246.528 67.8707 246.655 67.6279L246.94 67.0652H232.468ZM245.689 68.4142V82.8679H233.719V68.4142C233.719 68.2194 233.696 68.0253 233.649 67.8361H245.759C245.712 68.0253 245.689 68.2194 245.689 68.4142ZM249.458 67.0652L249.744 67.6279C249.87 67.8707 249.937 68.1404 249.937 68.4142V83.6388H263.452V68.4142C263.452 68.1404 263.518 67.8707 263.645 67.6279L263.93 67.0652H249.458ZM262.679 68.4142V82.8679H250.709V68.4142C250.709 68.2194 250.686 68.0253 250.639 67.8361H262.749C262.702 68.0253 262.679 68.2194 262.679 68.4142ZM113.537 67.0652L113.823 67.6279C113.95 67.8707 114.016 68.1404 114.016 68.4142V83.6388H127.531V68.4142C127.531 68.1404 127.597 67.8707 127.724 67.6279L128.01 67.0652H113.537ZM126.758 68.4142V82.8679H114.788V68.4142C114.788 68.2194 114.765 68.0253 114.719 67.8361H126.828C126.782 68.0253 126.758 68.2194 126.758 68.4142ZM130.527 67.0652L130.813 67.6279C130.94 67.8707 131.006 68.1404 131.006 68.4142V83.6388H144.521V68.4142C144.521 68.1404 144.587 67.8707 144.714 67.6279L145 67.0652H130.527ZM143.749 68.4142V82.8679H131.778V68.4142C131.779 68.2194 131.755 68.0253 131.709 67.8361H143.818C143.772 68.0253 143.748 68.2194 143.749 68.4142ZM147.517 67.0652L147.803 67.6279C147.93 67.8707 147.996 68.1404 147.996 68.4142V83.6388H161.511V68.4142C161.511 68.1404 161.577 67.8707 161.704 67.6279L161.99 67.0652H147.517ZM160.739 68.4142V82.8679H148.768V68.4142C148.769 68.2194 148.745 68.0253 148.699 67.8361H160.808C160.762 68.0253 160.738 68.2194 160.739 68.4142ZM164.507 67.0652L164.793 67.6279C164.92 67.8707 164.986 68.1404 164.986 68.4142V83.6388H178.501V68.4142C178.501 68.1404 178.567 67.8707 178.694 67.6279L178.98 67.0652H164.507ZM177.729 68.4142V82.8679H165.759V68.4142C165.759 68.2194 165.735 68.0253 165.689 67.8361H177.798C177.752 68.0253 177.729 68.2194 177.729 68.4142ZM181.497 67.0652L181.783 67.6279C181.91 67.8707 181.976 68.1404 181.976 68.4142V83.6388H195.491V68.4142C195.491 68.1404 195.558 67.8707 195.684 67.6279L195.97 67.0652H181.497ZM194.719 68.4142V82.8679H182.749V68.4142C182.749 68.2194 182.725 68.0253 182.679 67.8361H194.788C194.742 68.0253 194.719 68.2194 194.719 68.4142ZM198.488 67.0652L198.773 67.6279C198.9 67.8707 198.966 68.1404 198.966 68.4142V83.6388H212.481V68.4142C212.481 68.1404 212.548 67.8707 212.674 67.6279L212.96 67.0652H198.488ZM211.709 68.4142V82.8679H199.739V68.4142C199.739 68.2194 199.716 68.0253 199.669 67.8361H211.779C211.732 68.0253 211.709 68.2194 211.709 68.4142ZM215.478 67.0652L215.763 67.6279C215.89 67.8707 215.956 68.1404 215.957 68.4142V83.6388H229.471V68.4142C229.472 68.1404 229.538 67.8707 229.664 67.6279L229.95 67.0652H215.478ZM228.699 68.4142V82.8679H216.729V68.4142C216.729 68.2194 216.706 68.0253 216.659 67.8361H228.769C228.722 68.0253 228.699 68.2194 228.699 68.4142ZM232.468 67.0652L232.754 67.6279C232.88 67.8707 232.946 68.1404 232.947 68.4142V83.6388H246.461V68.4142C246.462 68.1404 246.528 67.8707 246.655 67.6279L246.94 67.0652H232.468ZM245.689 68.4142V82.8679H233.719V68.4142C233.719 68.2194 233.696 68.0253 233.649 67.8361H245.759C245.712 68.0253 245.689 68.2194 245.689 68.4142ZM249.458 67.0652L249.744 67.6279C249.87 67.8707 249.937 68.1404 249.937 68.4142V83.6388H263.452V68.4142C263.452 68.1404 263.518 67.8707 263.645 67.6279L263.93 67.0652H249.458ZM262.679 68.4142V82.8679H250.709V68.4142C250.709 68.2194 250.686 68.0253 250.639 67.8361H262.749C262.702 68.0253 262.679 68.2194 262.679 68.4142ZM113.537 67.0652L113.823 67.6279C113.95 67.8707 114.016 68.1404 114.016 68.4142V83.6388H127.531V68.4142C127.531 68.1404 127.597 67.8707 127.724 67.6279L128.01 67.0652H113.537ZM126.758 68.4142V82.8679H114.788V68.4142C114.788 68.2194 114.765 68.0253 114.719 67.8361H126.828C126.782 68.0253 126.758 68.2194 126.758 68.4142ZM130.527 67.0652L130.813 67.6279C130.94 67.8707 131.006 68.1404 131.006 68.4142V83.6388H144.521V68.4142C144.521 68.1404 144.587 67.8707 144.714 67.6279L145 67.0652H130.527ZM143.749 68.4142V82.8679H131.778V68.4142C131.779 68.2194 131.755 68.0253 131.709 67.8361H143.818C143.772 68.0253 143.748 68.2194 143.749 68.4142ZM147.517 67.0652L147.803 67.6279C147.93 67.8707 147.996 68.1404 147.996 68.4142V83.6388H161.511V68.4142C161.511 68.1404 161.577 67.8707 161.704 67.6279L161.99 67.0652H147.517ZM160.739 68.4142V82.8679H148.768V68.4142C148.769 68.2194 148.745 68.0253 148.699 67.8361H160.808C160.762 68.0253 160.738 68.2194 160.739 68.4142ZM164.507 67.0652L164.793 67.6279C164.92 67.8707 164.986 68.1404 164.986 68.4142V83.6388H178.501V68.4142C178.501 68.1404 178.567 67.8707 178.694 67.6279L178.98 67.0652H164.507ZM177.729 68.4142V82.8679H165.759V68.4142C165.759 68.2194 165.735 68.0253 165.689 67.8361H177.798C177.752 68.0253 177.729 68.2194 177.729 68.4142ZM181.497 67.0652L181.783 67.6279C181.91 67.8707 181.976 68.1404 181.976 68.4142V83.6388H195.491V68.4142C195.491 68.1404 195.558 67.8707 195.684 67.6279L195.97 67.0652H181.497ZM194.719 68.4142V82.8679H182.749V68.4142C182.749 68.2194 182.725 68.0253 182.679 67.8361H194.788C194.742 68.0253 194.719 68.2194 194.719 68.4142ZM198.488 67.0652L198.773 67.6279C198.9 67.8707 198.966 68.1404 198.966 68.4142V83.6388H212.481V68.4142C212.481 68.1404 212.548 67.8707 212.674 67.6279L212.96 67.0652H198.488ZM211.709 68.4142V82.8679H199.739V68.4142C199.739 68.2194 199.716 68.0253 199.669 67.8361H211.779C211.732 68.0253 211.709 68.2194 211.709 68.4142ZM215.478 67.0652L215.763 67.6279C215.89 67.8707 215.956 68.1404 215.957 68.4142V83.6388H229.471V68.4142C229.472 68.1404 229.538 67.8707 229.664 67.6279L229.95 67.0652H215.478ZM228.699 68.4142V82.8679H216.729V68.4142C216.729 68.2194 216.706 68.0253 216.659 67.8361H228.769C228.722 68.0253 228.699 68.2194 228.699 68.4142ZM232.468 67.0652L232.754 67.6279C232.88 67.8707 232.946 68.1404 232.947 68.4142V83.6388H246.461V68.4142C246.462 68.1404 246.528 67.8707 246.655 67.6279L246.94 67.0652H232.468ZM245.689 68.4142V82.8679H233.719V68.4142C233.719 68.2194 233.696 68.0253 233.649 67.8361H245.759C245.712 68.0253 245.689 68.2194 245.689 68.4142ZM249.458 67.0652L249.744 67.6279C249.87 67.8707 249.937 68.1404 249.937 68.4142V83.6388H263.452V68.4142C263.452 68.1404 263.518 67.8707 263.645 67.6279L263.93 67.0652H249.458ZM262.679 68.4142V82.8679H250.709V68.4142C250.709 68.2194 250.686 68.0253 250.639 67.8361H262.749C262.702 68.0253 262.679 68.2194 262.679 68.4142ZM113.537 67.0652L113.823 67.6279C113.95 67.8707 114.016 68.1404 114.016 68.4142V83.6388H127.531V68.4142C127.531 68.1404 127.597 67.8707 127.724 67.6279L128.01 67.0652H113.537ZM126.758 68.4142V82.8679H114.788V68.4142C114.788 68.2194 114.765 68.0253 114.719 67.8361H126.828C126.782 68.0253 126.758 68.2194 126.758 68.4142ZM130.527 67.0652L130.813 67.6279C130.94 67.8707 131.006 68.1404 131.006 68.4142V83.6388H144.521V68.4142C144.521 68.1404 144.587 67.8707 144.714 67.6279L145 67.0652H130.527ZM143.749 68.4142V82.8679H131.778V68.4142C131.779 68.2194 131.755 68.0253 131.709 67.8361H143.818C143.772 68.0253 143.748 68.2194 143.749 68.4142ZM147.517 67.0652L147.803 67.6279C147.93 67.8707 147.996 68.1404 147.996 68.4142V83.6388H161.511V68.4142C161.511 68.1404 161.577 67.8707 161.704 67.6279L161.99 67.0652H147.517ZM160.739 68.4142V82.8679H148.768V68.4142C148.769 68.2194 148.745 68.0253 148.699 67.8361H160.808C160.762 68.0253 160.738 68.2194 160.739 68.4142ZM164.507 67.0652L164.793 67.6279C164.92 67.8707 164.986 68.1404 164.986 68.4142V83.6388H178.501V68.4142C178.501 68.1404 178.567 67.8707 178.694 67.6279L178.98 67.0652H164.507ZM177.729 68.4142V82.8679H165.759V68.4142C165.759 68.2194 165.735 68.0253 165.689 67.8361H177.798C177.752 68.0253 177.729 68.2194 177.729 68.4142ZM181.497 67.0652L181.783 67.6279C181.91 67.8707 181.976 68.1404 181.976 68.4142V83.6388H195.491V68.4142C195.491 68.1404 195.558 67.8707 195.684 67.6279L195.97 67.0652H181.497ZM194.719 68.4142V82.8679H182.749V68.4142C182.749 68.2194 182.725 68.0253 182.679 67.8361H194.788C194.742 68.0253 194.719 68.2194 194.719 68.4142ZM198.488 67.0652L198.773 67.6279C198.9 67.8707 198.966 68.1404 198.966 68.4142V83.6388H212.481V68.4142C212.481 68.1404 212.548 67.8707 212.674 67.6279L212.96 67.0652H198.488ZM211.709 68.4142V82.8679H199.739V68.4142C199.739 68.2194 199.716 68.0253 199.669 67.8361H211.779C211.732 68.0253 211.709 68.2194 211.709 68.4142ZM215.478 67.0652L215.763 67.6279C215.89 67.8707 215.956 68.1404 215.957 68.4142V83.6388H229.471V68.4142C229.472 68.1404 229.538 67.8707 229.664 67.6279L229.95 67.0652H215.478ZM228.699 68.4142V82.8679H216.729V68.4142C216.729 68.2194 216.706 68.0253 216.659 67.8361H228.769C228.722 68.0253 228.699 68.2194 228.699 68.4142ZM232.468 67.0652L232.754 67.6279C232.88 67.8707 232.946 68.1404 232.947 68.4142V83.6388H246.461V68.4142C246.462 68.1404 246.528 67.8707 246.655 67.6279L246.94 67.0652H232.468ZM245.689 68.4142V82.8679H233.719V68.4142C233.719 68.2194 233.696 68.0253 233.649 67.8361H245.759C245.712 68.0253 245.689 68.2194 245.689 68.4142ZM249.458 67.0652L249.744 67.6279C249.87 67.8707 249.937 68.1404 249.937 68.4142V83.6388H263.452V68.4142C263.452 68.1404 263.518 67.8707 263.645 67.6279L263.93 67.0652H249.458ZM262.679 68.4142V82.8679H250.709V68.4142C250.709 68.2194 250.686 68.0253 250.639 67.8361H262.749C262.702 68.0253 262.679 68.2194 262.679 68.4142Z" fill="#3F3D56"/>
<path d="M159.446 134.516H130.971C130.371 134.515 129.796 134.277 129.372 133.854C128.948 133.43 128.709 132.857 128.708 132.258V117.117C128.709 116.518 128.948 115.944 129.372 115.521C129.796 115.098 130.371 114.859 130.971 114.859H159.446C160.045 114.859 160.62 115.098 161.044 115.521C161.468 115.944 161.707 116.518 161.708 117.117V132.258C161.707 132.857 161.468 133.43 161.044 133.854C160.62 134.277 160.045 134.515 159.446 134.516Z" fill="#EF6611"/>
<path d="M202.778 134.516H174.303C173.703 134.515 173.128 134.277 172.704 133.854C172.28 133.43 172.042 132.857 172.041 132.258V117.117C172.042 116.518 172.28 115.944 172.704 115.521C173.128 115.098 173.703 114.859 174.303 114.859H202.778C203.378 114.859 203.953 115.098 204.377 115.521C204.801 115.944 205.04 116.518 205.04 117.117V132.258C205.04 132.857 204.801 133.43 204.377 133.854C203.953 134.277 203.378 134.515 202.778 134.516Z" fill="#EF6611"/>
<path d="M246.11 134.516H217.635C217.035 134.515 216.46 134.277 216.036 133.854C215.612 133.43 215.374 132.857 215.373 132.258V117.117C215.374 116.518 215.612 115.944 216.036 115.521C216.46 115.098 217.035 114.859 217.635 114.859H246.11C246.71 114.859 247.285 115.098 247.709 115.521C248.133 115.944 248.372 116.518 248.372 117.117V132.258C248.372 132.857 248.133 133.43 247.709 133.854C247.285 134.277 246.71 134.515 246.11 134.516Z" fill="#EF6611"/>
<path d="M159.446 185.007H130.971C130.371 185.007 129.796 184.769 129.372 184.345C128.948 183.922 128.709 183.348 128.708 182.75V167.608C128.709 167.01 128.948 166.436 129.372 166.013C129.796 165.589 130.371 165.351 130.971 165.35H159.446C160.045 165.351 160.62 165.589 161.044 166.012C161.468 166.436 161.707 167.01 161.708 167.608V182.75C161.707 183.348 161.468 183.922 161.044 184.345C160.62 184.769 160.045 185.007 159.446 185.007Z" fill="#EF6611"/>
<path d="M202.778 185.007H174.303C173.703 185.007 173.128 184.769 172.704 184.345C172.28 183.922 172.042 183.348 172.041 182.75V167.608C172.042 167.01 172.28 166.436 172.704 166.013C173.128 165.589 173.703 165.351 174.303 165.35H202.778C203.378 165.351 203.953 165.589 204.377 166.012C204.801 166.436 205.04 167.01 205.04 167.608V182.75C205.04 183.348 204.801 183.922 204.377 184.345C203.953 184.769 203.378 185.007 202.778 185.007Z" fill="#EF6611"/>
<path d="M246.11 185.007H217.635C217.035 185.007 216.46 184.769 216.036 184.345C215.612 183.922 215.374 183.348 215.373 182.75V167.608C215.374 167.01 215.612 166.436 216.036 166.013C216.46 165.589 217.035 165.351 217.635 165.35H246.11C246.71 165.351 247.285 165.589 247.709 166.012C248.133 166.436 248.372 167.01 248.372 167.608V182.75C248.372 183.348 248.133 183.922 247.709 184.345C247.285 184.769 246.71 185.007 246.11 185.007Z" fill="#EF6611"/>
<path d="M159.446 235.499H130.971C130.371 235.498 129.796 235.26 129.372 234.837C128.948 234.414 128.709 233.84 128.708 233.241V218.1C128.709 217.501 128.948 216.927 129.372 216.504C129.796 216.081 130.371 215.843 130.971 215.842H159.446C160.045 215.843 160.62 216.081 161.044 216.504C161.468 216.927 161.707 217.501 161.708 218.1V233.241C161.707 233.84 161.468 234.414 161.044 234.837C160.62 235.26 160.045 235.498 159.446 235.499Z" fill="#EF6611"/>
<path d="M202.778 235.499H174.303C173.703 235.498 173.128 235.26 172.704 234.837C172.28 234.414 172.042 233.84 172.041 233.241V218.1C172.042 217.501 172.28 216.927 172.704 216.504C173.128 216.081 173.703 215.843 174.303 215.842H202.778C203.378 215.843 203.953 216.081 204.377 216.504C204.801 216.927 205.04 217.501 205.04 218.1V233.241C205.04 233.84 204.801 234.414 204.377 234.837C203.953 235.26 203.378 235.498 202.778 235.499Z" fill="#EF6611"/>
<path d="M246.11 235.499H217.635C217.035 235.498 216.46 235.26 216.036 234.837C215.612 234.414 215.374 233.84 215.373 233.241V218.1C215.374 217.501 215.612 216.927 216.036 216.504C216.46 216.081 217.035 215.843 217.635 215.842H246.11C246.71 215.843 247.285 216.081 247.709 216.504C248.133 216.927 248.372 217.501 248.372 218.1V233.241C248.372 233.84 248.133 234.414 247.709 234.837C247.285 235.26 246.71 235.498 246.11 235.499Z" fill="#EF6611"/>
<path d="M154.836 136.459H121.849C121.052 136.458 120.288 136.141 119.724 135.579C119.16 135.016 118.843 134.253 118.842 133.457V115.917C118.843 115.122 119.16 114.359 119.724 113.796C120.288 113.233 121.052 112.917 121.849 112.916H154.836C155.633 112.917 156.397 113.233 156.961 113.796C157.524 114.359 157.841 115.122 157.842 115.917V133.457C157.841 134.253 157.524 135.016 156.961 135.579C156.397 136.141 155.633 136.458 154.836 136.459ZM121.849 113.687C121.256 113.688 120.689 113.923 120.27 114.341C119.851 114.759 119.615 115.326 119.615 115.917V133.457C119.615 134.049 119.851 134.616 120.27 135.034C120.689 135.452 121.256 135.687 121.849 135.688H154.836C155.428 135.687 155.996 135.452 156.415 135.034C156.834 134.616 157.069 134.049 157.07 133.457V115.917C157.069 115.326 156.834 114.759 156.415 114.341C155.996 113.923 155.428 113.688 154.836 113.687H121.849Z" fill="#3F3D56"/>
<path d="M205.034 136.459H172.047C171.25 136.458 170.486 136.141 169.922 135.579C169.358 135.016 169.041 134.253 169.041 133.457V115.917C169.041 115.122 169.358 114.359 169.922 113.796C170.486 113.233 171.25 112.917 172.047 112.916H205.034C205.831 112.917 206.595 113.233 207.159 113.796C207.723 114.359 208.04 115.122 208.041 115.917V133.457C208.04 134.253 207.723 135.016 207.159 135.579C206.595 136.141 205.831 136.458 205.034 136.459ZM172.047 113.687C171.455 113.688 170.887 113.923 170.468 114.341C170.049 114.759 169.813 115.326 169.813 115.917V133.457C169.813 134.049 170.049 134.616 170.468 135.034C170.887 135.452 171.455 135.687 172.047 135.688H205.034C205.626 135.687 206.194 135.452 206.613 135.034C207.032 134.616 207.268 134.049 207.268 133.457V115.917C207.268 115.326 207.032 114.759 206.613 114.341C206.194 113.923 205.626 113.688 205.034 113.687H172.047Z" fill="#3F3D56"/>
<path d="M255.232 136.459H222.245C221.448 136.458 220.684 136.141 220.12 135.579C219.557 135.016 219.24 134.253 219.239 133.457V115.917C219.24 115.122 219.557 114.359 220.12 113.796C220.684 113.233 221.448 112.917 222.245 112.916H255.232C256.029 112.917 256.794 113.233 257.357 113.796C257.921 114.359 258.238 115.122 258.239 115.917V133.457C258.238 134.253 257.921 135.016 257.357 135.579C256.794 136.141 256.029 136.458 255.232 136.459ZM222.245 113.687C221.653 113.688 221.085 113.923 220.666 114.341C220.247 114.759 220.012 115.326 220.011 115.917V133.457C220.012 134.049 220.247 134.616 220.666 135.034C221.085 135.452 221.653 135.687 222.245 135.688H255.232C255.825 135.687 256.392 135.452 256.811 135.034C257.23 134.616 257.466 134.049 257.466 133.457V115.917C257.466 115.326 257.23 114.759 256.811 114.341C256.392 113.923 255.825 113.688 255.232 113.687H222.245Z" fill="#3F3D56"/>
<path d="M154.836 186.95H121.849C121.052 186.949 120.288 186.633 119.724 186.07C119.16 185.508 118.843 184.745 118.842 183.949V166.409C118.843 165.613 119.16 164.85 119.724 164.288C120.288 163.725 121.052 163.409 121.849 163.408H154.836C155.633 163.409 156.397 163.725 156.961 164.288C157.524 164.85 157.841 165.613 157.842 166.409V183.949C157.841 184.745 157.524 185.508 156.961 186.07C156.397 186.633 155.633 186.949 154.836 186.95ZM121.849 164.179C121.256 164.179 120.689 164.414 120.27 164.833C119.851 165.251 119.615 165.818 119.615 166.409V183.949C119.615 184.54 119.851 185.107 120.27 185.525C120.689 185.943 121.256 186.179 121.849 186.179H154.836C155.428 186.179 155.996 185.944 156.415 185.525C156.834 185.107 157.069 184.54 157.07 183.949V166.409C157.069 165.818 156.834 165.251 156.415 164.832C155.996 164.414 155.428 164.179 154.836 164.179H121.849Z" fill="#3F3D56"/>
<path d="M205.034 186.95H172.047C171.25 186.949 170.486 186.633 169.922 186.07C169.358 185.508 169.041 184.745 169.041 183.949V166.409C169.041 165.613 169.358 164.85 169.922 164.288C170.486 163.725 171.25 163.409 172.047 163.408H205.034C205.831 163.409 206.595 163.725 207.159 164.288C207.723 164.85 208.04 165.613 208.041 166.409V183.949C208.04 184.745 207.723 185.508 207.159 186.07C206.595 186.633 205.831 186.949 205.034 186.95ZM172.047 164.179C171.455 164.179 170.887 164.414 170.468 164.832C170.049 165.251 169.813 165.818 169.813 166.409V183.949C169.813 184.54 170.049 185.107 170.468 185.525C170.887 185.944 171.455 186.179 172.047 186.179H205.034C205.626 186.179 206.194 185.944 206.613 185.525C207.032 185.107 207.268 184.54 207.268 183.949V166.409C207.268 165.818 207.032 165.251 206.613 164.832C206.194 164.414 205.626 164.179 205.034 164.179H172.047Z" fill="#3F3D56"/>
<path d="M255.232 186.95H222.245C221.448 186.949 220.684 186.633 220.12 186.07C219.557 185.508 219.24 184.745 219.239 183.949V166.409C219.24 165.613 219.557 164.85 220.12 164.288C220.684 163.725 221.448 163.409 222.245 163.408H255.232C256.029 163.409 256.794 163.725 257.357 164.288C257.921 164.85 258.238 165.613 258.239 166.409V183.949C258.238 184.745 257.921 185.508 257.357 186.07C256.794 186.633 256.029 186.949 255.232 186.95ZM222.245 164.179C221.653 164.179 221.085 164.414 220.666 164.832C220.247 165.251 220.012 165.818 220.011 166.409V183.949C220.012 184.54 220.247 185.107 220.666 185.525C221.085 185.944 221.653 186.179 222.245 186.179H255.232C255.825 186.179 256.392 185.944 256.811 185.525C257.23 185.107 257.466 184.54 257.466 183.949V166.409C257.466 165.818 257.23 165.251 256.811 164.832C256.392 164.414 255.825 164.179 255.232 164.179H222.245Z" fill="#3F3D56"/>
<path d="M154.836 237.442H121.849C121.052 237.441 120.288 237.124 119.724 236.562C119.16 235.999 118.843 235.236 118.842 234.441V216.9C118.843 216.105 119.16 215.342 119.724 214.779C120.288 214.217 121.052 213.9 121.849 213.899H154.836C155.633 213.9 156.397 214.217 156.961 214.779C157.524 215.342 157.841 216.105 157.842 216.9V234.441C157.841 235.236 157.524 235.999 156.961 236.562C156.397 237.124 155.633 237.441 154.836 237.442ZM121.849 214.67C121.256 214.671 120.689 214.906 120.27 215.324C119.851 215.742 119.615 216.309 119.615 216.9V234.441C119.615 235.032 119.851 235.599 120.27 236.017C120.689 236.435 121.256 236.67 121.849 236.671H154.836C155.428 236.67 155.996 236.435 156.415 236.017C156.834 235.599 157.069 235.032 157.07 234.441V216.9C157.069 216.309 156.834 215.742 156.415 215.324C155.996 214.906 155.428 214.671 154.836 214.67H121.849Z" fill="#3F3D56"/>
<path d="M205.034 237.442H172.047C171.25 237.441 170.486 237.124 169.922 236.562C169.358 235.999 169.041 235.236 169.041 234.441V216.9C169.041 216.105 169.358 215.342 169.922 214.779C170.486 214.217 171.25 213.9 172.047 213.899H205.034C205.831 213.9 206.595 214.217 207.159 214.779C207.723 215.342 208.04 216.105 208.041 216.9V234.441C208.04 235.236 207.723 235.999 207.159 236.562C206.595 237.124 205.831 237.441 205.034 237.442ZM172.047 214.67C171.455 214.671 170.887 214.906 170.468 215.324C170.049 215.742 169.813 216.309 169.813 216.9V234.441C169.813 235.032 170.049 235.599 170.468 236.017C170.887 236.435 171.455 236.67 172.047 236.671H205.034C205.626 236.67 206.194 236.435 206.613 236.017C207.032 235.599 207.268 235.032 207.268 234.441V216.9C207.268 216.309 207.032 215.742 206.613 215.324C206.194 214.906 205.626 214.671 205.034 214.67H172.047Z" fill="#3F3D56"/>
<path d="M255.232 237.442H222.245C221.448 237.441 220.684 237.124 220.12 236.562C219.557 235.999 219.24 235.236 219.239 234.441V216.9C219.24 216.105 219.557 215.342 220.12 214.779C220.684 214.217 221.448 213.9 222.245 213.899H255.232C256.029 213.9 256.794 214.217 257.357 214.779C257.921 215.342 258.238 216.105 258.239 216.9V234.441C258.238 235.236 257.921 235.999 257.357 236.562C256.794 237.124 256.029 237.441 255.232 237.442ZM222.245 214.67C221.653 214.671 221.085 214.906 220.666 215.324C220.247 215.742 220.012 216.309 220.011 216.9V234.441C220.012 235.032 220.247 235.599 220.666 236.017C221.085 236.435 221.653 236.67 222.245 236.671H255.232C255.825 236.67 256.392 236.435 256.811 236.017C257.23 235.599 257.466 235.032 257.466 234.441V216.9C257.466 216.309 257.23 215.742 256.811 215.324C256.392 214.906 255.825 214.671 255.232 214.67H222.245Z" fill="#3F3D56"/>
<path d="M389.614 296.976H0.386139C0.283728 296.976 0.185512 296.935 0.113097 296.863C0.0406821 296.79 0 296.692 0 296.59C0 296.488 0.0406821 296.39 0.113097 296.318C0.185512 296.245 0.283728 296.205 0.386139 296.205H389.614C389.716 296.205 389.815 296.245 389.887 296.318C389.959 296.39 390 296.488 390 296.59C390 296.692 389.959 296.79 389.887 296.863C389.815 296.935 389.716 296.976 389.614 296.976Z" fill="#3F3D56"/>
<path d="M208.041 259.67C208.051 258.79 207.711 257.942 207.096 257.313C206.48 256.683 205.64 256.323 204.758 256.312H188.541V296.205H208.041V259.67Z" fill="#3F3D56"/>
<path d="M188.927 295.819H168.654V259.781C168.655 258.811 169.042 257.88 169.73 257.193C170.418 256.507 171.35 256.121 172.323 256.12H188.927V295.819ZM169.427 295.048H188.154V256.891H172.323C171.555 256.891 170.819 257.196 170.276 257.738C169.733 258.28 169.427 259.015 169.427 259.781V295.048Z" fill="#3F3D56"/>
<path d="M171.164 278.668C171.804 278.668 172.323 278.15 172.323 277.511C172.323 276.873 171.804 276.355 171.164 276.355C170.524 276.355 170.006 276.873 170.006 277.511C170.006 278.15 170.524 278.668 171.164 278.668Z" fill="#3F3D56"/>
</g>
<defs>
<clipPath id="clip0_9_1978">
<rect width="390" height="297" fill="white"/>
</clipPath>
</defs>
</svg>
