<svg width="376" height="286" viewBox="0 0 376 286" fill="none" xmlns="http://www.w3.org/2000/svg">
<g clip-path="url(#clip0_9_2019)">
<path d="M227.994 86.1836C228.462 86.2051 228.925 86.0824 229.32 85.8321C229.716 85.5818 230.025 85.2161 230.206 84.7845C230.387 84.3528 230.43 83.8761 230.33 83.4189C230.231 82.9618 229.993 82.5462 229.649 82.2286C229.592 82 229.55 81.8357 229.493 81.607C229.513 81.5572 229.534 81.5075 229.555 81.4578C231.657 76.4486 238.784 76.4832 240.869 81.4998C242.719 85.9524 245.075 90.4125 245.655 95.1203C245.91 97.2013 245.803 99.3108 245.336 101.355C249.682 91.8832 251.939 81.5885 251.954 71.1689C251.955 68.5542 251.809 65.9416 251.518 63.3431C251.278 61.2129 250.944 59.0979 250.517 56.998C248.188 45.6044 243.186 34.9253 235.924 25.8378C232.409 23.9217 229.566 20.975 227.779 17.3951C227.131 16.1082 226.674 14.7344 226.42 13.3166C226.817 13.3685 227.915 7.33514 227.616 6.96497C228.169 6.12721 229.158 5.71077 229.761 4.89328C232.763 0.827621 236.898 1.53751 239.057 7.06242C243.669 9.38782 243.713 13.2443 240.884 16.9534C239.083 19.3131 238.836 22.5061 237.256 25.0324C237.419 25.2403 237.588 25.4416 237.75 25.6495C240.721 29.4659 243.31 33.564 245.481 37.885C244.867 33.0926 245.773 27.319 247.319 23.5972C249.078 19.3567 252.376 15.7853 255.28 12.1194C258.769 7.71602 265.922 9.63773 266.536 15.2197C266.542 15.2737 266.548 15.3277 266.554 15.3818C266.122 15.6249 265.7 15.8829 265.287 16.1559C264.768 16.5024 264.366 16.9974 264.133 17.5761C263.901 18.1547 263.848 18.7901 263.983 19.399C264.118 20.0078 264.434 20.5617 264.89 20.9881C265.345 21.4145 265.919 21.6935 266.536 21.7885L266.599 21.7982C266.446 23.3514 266.174 24.8907 265.787 26.4028C269.512 40.7974 261.469 46.0402 249.984 46.2757C249.731 46.4056 249.484 46.5355 249.23 46.6589C251.411 52.8333 252.779 59.2647 253.299 65.7915C253.594 69.6421 253.577 73.5102 253.247 77.358L253.267 77.2216C254.099 72.943 256.384 69.0823 259.735 66.2915C264.712 62.2065 271.744 60.7022 277.114 57.4187C279.699 55.8381 283.011 57.8807 282.56 60.8747C282.553 60.9225 282.546 60.9703 282.538 61.0181C281.738 61.3438 280.958 61.719 280.205 62.1416C279.773 62.3848 279.351 62.6428 278.938 62.9157C278.419 63.2622 278.017 63.7572 277.784 64.3359C277.552 64.9146 277.499 65.55 277.634 66.1588C277.769 66.7677 278.085 67.3216 278.541 67.748C278.996 68.1744 279.57 68.4534 280.187 68.5484L280.25 68.5581C280.296 68.5646 280.335 68.5711 280.38 68.5776C279.012 71.8403 277.093 74.8434 274.705 77.4555C272.376 90.0214 262.37 91.2136 251.668 87.5543H251.661C250.487 92.6524 248.786 97.6148 246.584 102.362H228.448C228.383 102.16 228.325 101.952 228.266 101.751C229.945 101.856 231.63 101.756 233.285 101.452C231.939 99.8028 230.593 98.1402 229.248 96.4906C229.218 96.4598 229.19 96.4272 229.163 96.3932C228.481 95.5489 227.792 94.7111 227.109 93.8669L227.109 93.8659C227.072 91.2779 227.37 88.6961 227.993 86.184L227.994 86.1836Z" fill="#F2F2F2"/>
<path d="M286.224 39.8121C282.851 27.5287 310.05 16.9954 317.192 26.8872C318.185 25.4809 321.856 24.6267 323.54 25.0581C325.224 25.4895 326.64 26.568 328.022 27.612C329.922 29.0702 331.891 30.5801 333.057 32.6767C334.231 34.7646 334.412 37.6119 332.832 39.4238C331.58 40.8647 327.884 41.7965 326.001 42.1761C324.688 42.4436 323.583 42.6593 322.633 42.8146C321.77 41.5726 321.373 40.0666 321.51 38.561C320.871 38.9919 320.335 39.5589 319.941 40.2212C319.546 40.8835 319.304 41.6248 319.23 42.3919C319.204 42.7111 329.844 81.822 329.844 81.822C328.566 82.5489 327.221 83.1526 325.828 83.6252C323.073 79.4182 320.963 74.8233 319.567 69.9929C319.246 73.2229 319.287 76.4785 319.688 79.6995C319.901 81.5056 320.207 83.2997 320.604 85.0747C307.96 87.8012 288.944 86.9039 280.671 75.3078C280.669 75.2599 280.668 75.2118 280.666 75.1638C280.66 74.7061 280.494 74.2649 280.198 73.9157C279.902 73.5665 279.493 73.331 279.042 73.2497C278.592 73.1684 278.126 73.2462 277.727 73.4699C277.327 73.6935 277.017 74.0491 276.851 74.4757C276.65 74.9873 276.466 75.4301 276.301 75.7824C273.891 67.1715 277.009 57.2062 286.224 39.8121Z" fill="#2F2E41"/>
<path d="M264.709 245.748V246.15C264.693 246.016 264.693 245.881 264.709 245.748Z" fill="#2F2E41"/>
<path d="M277.09 176.232C277.412 176.145 277.739 176.081 278.07 176.042C277.69 176.103 277.364 176.167 277.09 176.232Z" fill="#2F2E41"/>
<path d="M276.804 176.305C276.891 176.28 276.987 176.256 277.09 176.232C276.994 176.257 276.902 176.275 276.804 176.305Z" fill="#2F2E41"/>
<path d="M368.278 285.998H321.935C321.274 285.471 320.815 284.733 320.634 283.907C320.453 283.081 320.562 282.219 320.943 281.464C322.209 278.563 319.728 275.913 319.728 275.913C318.886 274.927 318.3 273.749 318.023 272.482C317.746 271.216 317.786 269.901 318.14 268.654C319.368 264.37 314.556 252.277 314.556 252.277C314.556 252.277 311.962 267.892 308.783 285.998H264.709C263.971 284.742 263.581 283.311 263.581 281.854C263.581 280.397 263.971 278.967 264.709 277.71C267.277 273.359 264.709 272.525 264.709 272.525C264.709 272.525 262.14 267.656 264.709 264.12C267.277 260.585 264.709 246.15 264.709 246.15C264.806 246.788 265.537 245.628 266.664 243.195C268.379 239.493 271 232.836 273.648 225.108C275.542 219.592 277.45 213.523 279.045 207.589H279.049C279.468 206.031 279.864 204.486 280.238 202.955C280.97 199.954 281.597 197.037 282.073 194.299C283.107 188.4 283.448 183.333 282.654 180.037C281.996 177.295 280.555 175.783 278.07 176.042C279.402 175.821 281.353 175.612 283.757 175.415C284.191 175.38 284.64 175.345 285.105 175.307C303.038 173.953 341.514 173.175 341.514 173.175L353.299 194.26L368.224 220.969C368.224 220.969 367.818 256.799 368.278 285.998Z" fill="#2F2E41"/>
<path d="M318.813 82.0437L291.662 76.2894L286.27 87.131L268.116 97.632C268.116 97.632 279.818 145.436 279.751 152.16C279.582 169.23 252.244 207.495 272.893 204.551C293.542 201.607 297.737 189.277 304.366 191.227C310.344 192.985 317.644 200.807 322.531 195.213C327.418 189.618 329.139 196.079 332.23 196.302C333.698 196.408 332.814 189.238 336.509 196.525C340.204 203.812 359.798 194.003 353.157 187.368C342.097 176.318 339.849 94.8615 339.849 94.8615L327.536 91.0766L318.813 82.0437Z" fill="#E6E6E6"/>
<path d="M267.602 255.649C268.693 254.349 269.233 252.676 269.108 250.984C268.983 249.293 268.202 247.717 266.931 246.592C266.669 246.367 266.389 246.164 266.094 245.986L270.633 223.726L260.139 217.451L257.219 248.616C256.574 249.896 256.37 251.355 256.641 252.763C256.912 254.171 257.642 255.45 258.717 256.401C259.334 256.935 260.051 257.344 260.826 257.602C261.601 257.86 262.419 257.963 263.233 257.906C264.048 257.848 264.844 257.631 265.574 257.266C266.305 256.901 266.957 256.396 267.492 255.78C267.529 255.737 267.566 255.693 267.602 255.649Z" fill="#A0616A"/>
<path d="M300.188 138.317C300.122 137.601 299.209 137.276 297.943 136.827C296.671 136.436 295.462 135.864 294.354 135.129C291.551 133.106 292.654 130.991 294.179 128.066C294.478 127.498 294.787 126.906 295.078 126.291C295.941 124.469 294.567 116.953 290.985 103.949C289.882 99.9457 289.886 97.1182 289.123 95.2422C288.364 93.3662 286.843 92.4417 282.696 92.2483C277.684 91.9955 272.777 93.7384 269.049 97.095C268.948 97.1839 268.844 97.2807 268.743 97.3735C268.553 97.5514 268.367 97.7332 268.185 97.9189C264.738 101.384 262.765 106.046 262.68 110.931L262.661 111.763L261.805 151.495L259.401 186.362L256.087 234.391L258.541 234.511L268.336 234.998L269.525 235.056L272.344 223.243L275.735 209.028L276.982 203.806L280.85 187.607L282.654 180.037L283.757 175.415L284.206 173.527L286.397 164.352C286.448 164.159 291.489 144.289 297.3 140.966C299.468 139.728 300.25 139.009 300.188 138.317Z" fill="#E6E6E6"/>
<path d="M365.391 255.412C364.166 254.237 363.449 252.631 363.392 250.936C363.335 249.241 363.942 247.59 365.084 246.335C365.321 246.084 365.577 245.852 365.852 245.643L358.945 224L368.705 216.634L374.957 247.305C375.737 248.51 376.096 249.938 375.978 251.367C375.86 252.796 375.272 254.146 374.305 255.206C373.749 255.804 373.081 256.287 372.338 256.627C371.595 256.967 370.793 257.157 369.977 257.187C369.16 257.217 368.346 257.086 367.581 256.802C366.815 256.518 366.113 256.086 365.514 255.53C365.473 255.492 365.431 255.452 365.391 255.412Z" fill="#A0616A"/>
<path d="M370.165 208.448C370.165 208.448 362.553 181.691 364.875 178.795C367.196 175.898 360.34 175.333 363.295 169.938C366.249 164.544 362.171 163.641 362.171 163.641L359.958 151.238L356.002 120.773L355.882 119.867L354.732 111.004C354.41 108.472 353.581 106.031 352.294 103.827C351.007 101.623 349.288 99.7007 347.24 98.1754C347.136 98.0954 347.029 98.0185 346.922 97.9417C346.435 97.5914 345.938 97.2669 345.429 96.9681C341.632 94.7299 337.173 93.8836 332.818 94.5749C324.614 95.8515 327.167 98.9083 325.836 107.097C323.674 120.413 323.113 128.03 324.167 129.751C324.523 130.331 324.896 130.885 325.252 131.418C327.084 134.165 328.408 136.147 325.837 138.464C324.813 139.31 323.673 140.007 322.452 140.533C321.244 141.118 320.369 141.537 320.381 142.256C320.394 142.952 321.248 143.58 323.536 144.577C326.307 145.789 329.284 150.37 331.722 155.05C333.656 158.823 335.382 162.699 336.89 166.66L357.846 225.544L361.264 235.146L362.443 234.96L372.126 233.427L374.554 233.043L370.165 208.448Z" fill="#E6E6E6"/>
<path d="M307.358 75.8828C319.592 75.8828 329.51 65.9743 329.51 53.7515C329.51 41.5287 319.592 31.6201 307.358 31.6201C295.124 31.6201 285.206 41.5287 285.206 53.7515C285.206 65.9743 295.124 75.8828 307.358 75.8828Z" fill="#A0616A"/>
<path d="M274.133 41.5377C270.761 29.2543 297.959 18.721 305.102 28.6129C306.095 27.2065 309.765 26.3523 311.449 26.7837C313.133 27.2151 314.549 28.2936 315.931 29.3376C317.831 30.7958 319.8 32.3057 320.966 34.4023C322.141 36.4903 322.322 39.3375 320.741 41.1494C319.489 42.5903 315.793 43.5221 313.91 43.9018C312.598 44.1692 311.492 44.3849 310.542 44.5402C309.679 43.2982 309.282 41.7922 309.42 40.2866C308.78 40.7175 308.244 41.2845 307.85 41.9468C307.456 42.6091 307.213 43.3504 307.14 44.1175C307.114 44.4367 317.753 83.5476 317.753 83.5476C316.475 84.2745 315.13 84.8783 313.738 85.3508C310.982 81.1438 308.872 76.5489 307.477 71.7185C307.156 74.9485 307.196 78.2041 307.597 81.4251C307.811 83.2312 308.116 85.0253 308.513 86.8003C295.87 89.5268 276.853 88.6295 268.58 77.0334C268.579 76.9855 268.577 76.9375 268.576 76.8894C268.569 76.4317 268.404 75.9905 268.108 75.6413C267.811 75.2921 267.403 75.0567 266.952 74.9754C266.501 74.894 266.036 74.9719 265.636 75.1955C265.236 75.4192 264.927 75.7747 264.761 76.2013C264.56 76.7129 264.375 77.1558 264.21 77.508C261.801 68.8972 264.918 58.9318 274.133 41.5377Z" fill="#2F2E41"/>
<path d="M164.274 118.011C163.806 118.032 163.343 117.91 162.947 117.66C162.552 117.409 162.243 117.043 162.062 116.612C161.881 116.18 161.838 115.703 161.937 115.246C162.037 114.789 162.275 114.374 162.619 114.056C162.676 113.827 162.718 113.663 162.775 113.434C162.755 113.385 162.734 113.335 162.713 113.285C160.61 108.276 153.484 108.311 151.399 113.327C149.549 117.78 147.193 122.24 146.613 126.948C146.357 129.029 146.465 131.138 146.931 133.182C142.585 123.711 140.329 113.416 140.314 102.996C140.313 100.382 140.458 97.769 140.75 95.1705C140.99 93.0403 141.324 90.9253 141.751 88.8254C144.08 77.4318 149.081 66.7528 156.344 57.6652C159.859 55.7491 162.702 52.8025 164.489 49.2225C165.137 47.9356 165.594 46.5619 165.848 45.144C165.451 45.1959 164.353 39.1626 164.652 38.7924C164.099 37.9546 163.11 37.5382 162.506 36.7207C159.505 32.6551 155.37 33.3649 153.211 38.8898C148.599 41.2152 148.554 45.0718 151.384 48.7808C153.184 51.1406 153.432 54.3336 155.011 56.8599C154.849 57.0677 154.68 57.269 154.517 57.4769C151.547 61.2933 148.958 65.3914 146.787 69.7125C147.401 64.92 146.494 59.1464 144.949 55.4247C143.189 51.1841 139.892 47.6127 136.987 43.9468C133.499 39.5434 126.346 41.4652 125.732 47.0471C125.726 47.1011 125.72 47.1552 125.714 47.2092C126.145 47.4523 126.568 47.7104 126.981 47.9834C127.5 48.3298 127.902 48.8248 128.135 49.4035C128.367 49.9822 128.419 50.6176 128.284 51.2264C128.149 51.8353 127.833 52.3892 127.378 52.8156C126.922 53.2419 126.349 53.5209 125.732 53.6159L125.669 53.6257C125.822 55.1789 126.094 56.7182 126.481 58.2302C122.756 72.6248 130.799 77.8677 142.284 78.1032C142.537 78.233 142.784 78.3629 143.038 78.4864C140.857 84.6607 139.489 91.0921 138.968 97.6189C138.674 101.47 138.691 105.338 139.02 109.185L139.001 109.049C138.169 104.77 135.884 100.91 132.533 98.119C127.556 94.034 120.523 92.5297 115.154 89.2461C112.569 87.6655 109.256 89.7081 109.708 92.7021C109.715 92.7499 109.722 92.7977 109.73 92.8455C110.53 93.1712 111.309 93.5465 112.063 93.969C112.495 94.2122 112.917 94.4702 113.33 94.7432C113.849 95.0896 114.251 95.5846 114.484 96.1633C114.716 96.742 114.769 97.3774 114.634 97.9863C114.499 98.5951 114.183 99.149 113.727 99.5754C113.272 100.002 112.698 100.281 112.081 100.376L112.018 100.386C111.972 100.392 111.933 100.399 111.888 100.405C113.255 103.668 115.175 106.671 117.563 109.283C119.892 121.849 129.897 123.041 140.6 119.382H140.607C141.781 124.48 143.482 129.442 145.683 134.189H163.819C163.885 133.988 163.943 133.78 164.002 133.578C162.323 133.684 160.638 133.584 158.983 133.28C160.329 131.63 161.674 129.968 163.02 128.318C163.05 128.287 163.078 128.255 163.104 128.221C163.787 127.376 164.476 126.539 165.159 125.694L165.159 125.693C165.195 123.105 164.898 120.523 164.275 118.011L164.274 118.011Z" fill="#F2F2F2"/>
<path d="M79.6492 26.8877C79.2376 27.846 66.5456 27.7434 65.9644 28.5967C61.4826 35.185 77.6385 63.2167 73.1567 69.8135L72.5324 70.5569C73.9945 69.8837 75.399 69.0921 76.7319 68.1899C76.8517 65.4897 76.9714 62.7809 77.0997 60.0806C78.4421 61.7963 79.5256 63.6993 80.3156 65.7289C81.3591 64.9941 82.2151 63.6318 86.6876 60.9522C88.4983 58.965 90.5857 57.2483 92.8857 55.8549L79.6492 26.8877Z" fill="#2F2E41"/>
<path d="M88.8656 80.8826C87.465 79.971 85.8671 79.4063 84.2043 79.2353C82.5415 79.0644 80.8619 79.292 79.3049 79.8994C77.7478 80.5068 76.3582 81.4764 75.2513 82.7278C74.1444 83.9791 73.3521 85.4762 72.9403 87.0947L53.6531 137.303L20.5006 118.499C20.355 116.337 19.5281 114.278 18.1383 112.615C16.7486 110.952 14.8674 109.771 12.7647 109.243C10.6619 108.714 8.4456 108.864 6.43361 109.672C4.42161 110.48 2.7173 111.903 1.56511 113.738C0.412913 115.573 -0.127968 117.726 0.0200408 119.887C0.16805 122.048 0.997347 124.107 2.38899 125.769C3.78063 127.43 5.66311 128.608 7.76645 129.134C9.86979 129.661 12.0859 129.508 14.097 128.698C21.0786 136.143 51.3465 166.665 63.8773 154.739C74.4099 144.715 89.6098 105.864 93.2687 92.4485C93.8548 90.3032 93.7443 88.0274 92.953 85.9489C92.1617 83.8704 90.7306 82.0965 88.8656 80.8826Z" fill="#FFB6B6"/>
<path d="M52.6494 156.843L58.7359 184.328L103.242 188.35L107.332 164.418L52.6494 156.843Z" fill="#FFB6B6"/>
<path d="M120.633 227.324C120.613 227.718 120.589 228.108 120.56 228.502C120.133 234.197 119.645 240.765 119.117 247.962C118.283 259.385 117.352 272.391 116.413 285.998H23.061L41.1657 231.631C41.1657 231.631 48.4759 227.61 44.7542 220.855C41.0325 214.1 48.3555 219.483 48.4236 209.836C48.4917 200.189 55.0539 189.926 55.0539 189.926L56.1313 175.319L56.7452 175.331L105.326 176.139L106.212 176.156L107.704 188.695C116.764 199.466 121.386 213.275 120.633 227.324Z" fill="#2F2E41"/>
<path d="M80.427 67.5627L102.58 66.4226L112.869 82.6661C112.869 82.6661 132.229 85.8998 130.887 108.692C129.545 131.484 107.332 151.484 107.332 151.484L108.282 148.232L106.632 152.939L106.844 155.583L109.094 158.382L109.325 161.277L107.332 165.858C107.591 166.273 107.729 166.753 107.729 167.242C107.729 167.731 107.593 168.211 107.334 168.626C107.075 169.041 106.705 169.376 106.266 169.592C105.826 169.808 105.335 169.897 104.848 169.848L72.8389 166.643C72.1101 164.64 71.5254 162.244 68.6042 166.233L65.5889 165.941L53.0542 164.728L52.3164 162.043C51.8972 160.517 51.8319 158.916 52.1254 157.361C52.4189 155.806 53.0636 154.339 54.0103 153.071C52.9215 149.665 53.2066 145.968 54.805 142.769L54.865 142.649L56.1961 141.541C56.1961 141.541 41.6332 119.682 58.351 103.219L65.0607 91.8225L72.5683 82.6713L80.427 67.5627Z" fill="#EF6611"/>
<path d="M85.9406 57.9742C97.5425 57.9742 106.948 48.5777 106.948 36.9865C106.948 25.3954 97.5425 15.9989 85.9406 15.9989C74.3388 15.9989 64.9336 25.3954 64.9336 36.9865C64.9336 48.5777 74.3388 57.9742 85.9406 57.9742Z" fill="#FFB6B6"/>
<path d="M101.896 67.2207C100.185 65.7927 98.9943 63.8401 98.5086 61.6664C98.1201 64.3056 98.2216 66.9938 98.808 69.5962C97.6705 70.4508 96.5671 71.2626 95.5236 71.9974C94.7336 69.9678 93.6501 68.0648 92.3077 66.3491C92.1794 69.0493 92.0597 71.7582 91.9399 74.4584C90.6071 75.3606 89.2025 76.1522 87.7404 76.8254L88.3648 76.082C92.8465 69.4852 81.2486 57.3426 85.7304 50.7542C86.9877 48.9085 81.3085 34.322 76.9807 33.664C73.1318 33.0829 73.2943 34.1938 69.5652 35.0056C69.1779 33.392 68.5768 31.8373 67.7776 30.3826C67.9904 32.0035 67.9413 33.648 67.6322 35.2534C66.3065 35.3046 65.2635 34.4607 63.8518 34.245C54.8455 32.8693 55.7606 23.1364 58.2667 20.0516C60.7813 16.9754 69.129 16.0525 72.9779 15.0527C73.3285 14.7109 74.124 14.9245 74.4747 14.5998C81.8508 7.85551 91.7159 6.73861 100.594 9.72782C110.061 12.9156 115.964 19.0853 118.993 28.5967L119.862 36.2083C120.642 38.6556 119.661 50.043 118.993 52.5231C116.397 62.1637 110.869 57.3511 101.896 67.2207Z" fill="#2F2E41"/>
<path d="M132.526 166.655L131.699 102.304C131.655 99.5776 130.541 96.9776 128.596 95.0649C126.651 93.1523 124.032 92.0803 121.303 92.0803H121.303C119.891 92.0803 118.494 92.3675 117.197 92.9245C115.9 93.4816 114.73 94.2967 113.758 95.3202C112.787 96.3437 112.034 97.5541 111.546 98.8777C111.058 100.201 110.845 101.61 110.92 103.019L113.83 169.837L113.885 210.513C112.17 211.24 110.72 212.477 109.733 214.055C108.746 215.634 108.269 217.478 108.367 219.336C108.465 221.195 109.134 222.979 110.282 224.445C111.43 225.91 113.002 226.988 114.784 227.53C116.567 228.072 118.473 228.053 120.244 227.476C122.015 226.898 123.565 225.789 124.683 224.301C125.802 222.812 126.435 221.016 126.496 219.156C126.557 217.295 126.043 215.461 125.025 213.903L132.526 166.655Z" fill="#FFB6B6"/>
<path d="M240.945 249.91C240.945 249.91 239.666 272.892 239.079 286H195.044C194.138 274.071 193.833 265.308 193.833 265.308L191.424 286H146.914L144.154 247.677L157.489 214.653C157.489 214.653 229.755 209.646 236.458 215.998C243.157 222.345 240.945 249.91 240.945 249.91Z" fill="#2F2E41"/>
<path d="M202.006 56.5746C215.29 56.5746 226.059 45.8158 226.059 32.5441C226.059 19.2724 215.29 8.51356 202.006 8.51356C188.722 8.51356 177.954 19.2724 177.954 32.5441C177.954 45.8158 188.722 56.5746 202.006 56.5746Z" fill="#FFB6B6"/>
<path d="M230.042 24.7357C227.571 25.8611 225.971 34.0124 224.029 32.1174C222.087 30.2224 222.217 27.7564 219.599 27.057C217.484 26.4898 215.209 27.138 213.281 28.1604C212.937 28.3407 212.603 28.5369 212.277 28.7319C212.063 28.5886 211.849 28.4537 211.62 28.3292C209.895 27.407 207.881 27.1808 205.994 27.6971C207.485 28.196 208.782 29.1506 209.7 30.4258C209.055 30.8579 208.401 31.2912 207.732 31.675C202.146 34.8958 194.197 27.8924 188.317 25.2614C192 32.1666 190.187 35.0264 186.989 42.1678L186.878 42.5745C187.06 40.7846 181.516 39.4507 181.838 41.9703C182.066 43.7592 183.615 47.7355 184.483 49.3149C178.301 42.1732 174.076 33.4336 174.968 24.418C175.162 22.5241 175.103 20.5258 176.081 18.8821C177.06 17.2468 179.1 16.0992 180.906 16.7228C180.753 13.8476 181.383 10.9848 182.728 8.43861C184.074 5.89245 186.084 3.75815 188.547 2.26261C191.01 0.767071 193.832 -0.0338054 196.714 -0.0548786C199.596 -0.0759518 202.429 0.683571 204.914 2.14294C207.222 3.49621 209.149 5.41017 211.265 7.06112C213.381 8.71205 215.819 10.1511 218.502 10.2874C220.204 10.3694 222.056 9.95428 223.518 10.835C225.212 11.8568 225.502 13.9963 225.756 16.0551C224.246 16.2039 222.814 16.7993 221.643 17.7652C223.206 17.6059 224.78 17.9431 226.14 18.7289C226.166 18.7405 226.191 18.7545 226.214 18.7707C227.109 22.1731 227.018 22.9273 230.042 24.7357Z" fill="#2F2E41"/>
<path d="M147.169 226.797C167.652 202.844 160.734 172.377 152.604 141.622L154.151 96.1877C154.227 93.959 154.839 91.7812 155.934 89.8384C157.03 87.8955 158.577 86.2445 160.446 85.0248L181.356 71.3767L189.495 59.6203L211.929 61.8617L224.37 75.006L238.14 85.5089C241.598 88.1461 244.229 91.7159 245.723 95.7975C247.217 99.8791 247.511 104.302 246.572 108.546L233.394 168.086C233.394 168.086 238.906 198.952 235.543 202.36C232.18 205.769 223.514 202.362 230.386 206.189C238.633 210.781 246.131 209.934 241.958 214.103C237.785 218.273 243.066 224.069 243.066 224.069L147.169 226.797Z" fill="#EF6611"/>
<path d="M155.778 261.092L159.193 236.786L145.567 232.9L142.872 258.726C141.744 259.758 140.928 261.085 140.513 262.557C140.099 264.028 140.104 265.586 140.527 267.054C140.95 268.523 141.775 269.845 142.909 270.871C144.043 271.897 145.441 272.587 146.946 272.863C148.45 273.139 150.002 272.99 151.427 272.433C152.852 271.876 154.093 270.933 155.01 269.71C155.928 268.487 156.486 267.032 156.621 265.51C156.757 263.987 156.465 262.457 155.778 261.092Z" fill="#FFB6B6"/>
<path d="M181.718 75.2399C181.718 75.2399 142.935 87.8511 142.01 97.0785C141.085 106.306 141.392 111.955 137.298 148.879L137.514 248.343C137.514 248.343 163.516 253.905 160.85 247.959C158.183 242.012 159.113 239.214 159.113 239.214C159.113 239.214 164.688 237.016 163.293 230.034C161.897 223.051 168.896 188.448 168.896 188.448L173.313 126.39L181.718 75.2399Z" fill="#EF6611"/>
<path d="M229.54 259.804L227.722 235.328L241.573 232.34L242.573 258.286C243.63 259.391 244.359 260.768 244.676 262.263C244.993 263.758 244.886 265.312 244.368 266.75C243.849 268.188 242.94 269.454 241.741 270.403C240.542 271.353 239.102 271.95 237.583 272.127C236.063 272.304 234.524 272.054 233.139 271.405C231.754 270.756 230.577 269.734 229.742 268.454C228.906 267.174 228.444 265.686 228.409 264.158C228.373 262.63 228.765 261.122 229.54 259.804H229.54Z" fill="#FFB6B6"/>
<path d="M215.814 72.6561C215.814 72.6561 253.69 87.7731 254.009 97.0412C254.328 106.309 253.653 111.926 255.321 149.039L248.599 248.276C248.599 248.276 222.288 252.128 225.338 246.368C228.388 240.608 227.643 237.756 227.643 237.756C227.643 237.756 222.224 235.198 224.073 228.322C225.922 221.446 221.203 186.46 221.203 186.46L220.855 124.246L215.814 72.6561Z" fill="#EF6611"/>
</g>
<defs>
<clipPath id="clip0_9_2019">
<rect width="376" height="286" fill="white"/>
</clipPath>
</defs>
</svg>
