<svg width="29" height="24" viewBox="0 0 29 24" fill="none" xmlns="http://www.w3.org/2000/svg">
<path fill-rule="evenodd" clip-rule="evenodd" d="M11.0163 5.61581C9.38904 3.96171 7.63453 2.35531 7.0515 2.46216C6.34756 2.59116 5.57923 5.90755 5.07336 8.56576C3.27861 10.2005 2.19519 12.3209 2.19519 14.6378C2.19519 19.8084 7.59073 24 14.2465 24C20.9022 24 26.2977 19.8084 26.2977 14.6378C26.2977 12.2937 25.1888 10.1509 23.3562 8.50852C22.8503 5.86018 22.0879 2.59024 21.389 2.46216C20.807 2.35551 19.058 3.95571 17.4333 5.60654C16.4182 5.39086 15.3497 5.2757 14.2465 5.2757C13.1276 5.2757 12.0443 5.39416 11.0163 5.61581Z" fill="#FFEBA8"/>
<g style="mix-blend-mode:multiply">
<path fill-rule="evenodd" clip-rule="evenodd" d="M11.0925 5.59956V8.13288C11.0925 8.7135 11.5632 9.18418 12.1438 9.18418C12.7245 9.18418 13.1951 8.7135 13.1951 8.13288V5.31081C12.4742 5.35921 11.7715 5.45691 11.0925 5.59956ZM13.1952 5.31081V9.04121C13.1952 9.62183 13.6659 10.0925 14.2465 10.0925C14.8271 10.0925 15.2978 9.62183 15.2978 9.04121V5.31081C14.9513 5.28755 14.6007 5.27568 14.2464 5.27568C13.8922 5.27568 13.5416 5.28755 13.1952 5.31081ZM15.2978 5.31082V8.13288C15.2978 8.7135 15.7685 9.18418 16.3491 9.18418C16.9297 9.18418 17.4004 8.7135 17.4004 8.13288V5.59957C16.7214 5.45692 16.0187 5.35922 15.2978 5.31082Z" fill="#FFEBA8"/>
</g>
<path d="M24.1326 14.1401C25.5636 13.6283 25.8116 13.5427 27.3439 13.2695" stroke="#323232" stroke-width="1.89474" stroke-linecap="round" stroke-linejoin="round"/>
<path d="M23.8078 16.9008C25.2942 17.3036 25.9629 17.3858 27.3805 18.0376" stroke="#323232" stroke-width="1.89474" stroke-linecap="round" stroke-linejoin="round"/>
<path d="M24.295 15.6016C25.6636 15.5211 26.1182 15.6824 27.4849 15.8537" stroke="#323232" stroke-width="1.89474" stroke-linecap="round" stroke-linejoin="round"/>
<path d="M4.36039 14.1401C2.92941 13.6283 2.68142 13.5427 1.14911 13.2695" stroke="#323232" stroke-width="1.89474" stroke-linecap="round" stroke-linejoin="round"/>
<path d="M4.68512 16.9008C3.19875 17.3036 2.53004 17.3858 1.11243 18.0376" stroke="#323232" stroke-width="1.89474" stroke-linecap="round" stroke-linejoin="round"/>
<path d="M4.19794 15.6016C2.82933 15.5211 2.37477 15.6824 1.00808 15.8537" stroke="#323232" stroke-width="1.89474" stroke-linecap="round" stroke-linejoin="round"/>
<circle cx="8.69391" cy="13.1439" r="2.01685" fill="#323232"/>
<circle cx="9.61524" cy="12.8949" r="0.448188" fill="white"/>
<path d="M18.0312 14.0875C18.0312 13.8114 18.0802 13.5379 18.1753 13.2828C18.2704 13.0277 18.4098 12.796 18.5855 12.6007C18.7612 12.4055 18.9698 12.2506 19.1994 12.1449C19.429 12.0393 19.6751 11.9849 19.9236 11.9849C20.1721 11.9849 20.4182 12.0393 20.6478 12.1449C20.8774 12.2506 21.086 12.4055 21.2617 12.6007C21.4374 12.796 21.5768 13.0277 21.6719 13.2828C21.767 13.5379 21.8159 13.8114 21.8159 14.0875" stroke="#323232" stroke-width="2.5" stroke-linecap="round" stroke-linejoin="round"/>
<path d="M15.5413 15.0362C15.5413 15.4213 15.0954 15.7334 14.5453 15.7334C13.9952 15.7334 13.5493 15.4213 13.5493 15.0362C13.5493 14.6512 13.9952 14.2395 14.5453 14.2395C15.0954 14.2395 15.5413 14.6512 15.5413 15.0362Z" fill="#323232"/>
<path d="M14.5452 14.7374V16.1318C14.5452 16.5718 14.1885 16.9286 13.7484 16.9286H13.4994C13.1969 16.9286 12.9517 16.6833 12.9517 16.3808V16.3808" stroke="#323232" stroke-width="2" stroke-linecap="round" stroke-linejoin="round"/>
<path d="M14.5453 14.7374V16.1318C14.5453 16.5718 14.902 16.9286 15.3421 16.9286H15.5911C15.8936 16.9286 16.1389 16.6833 16.1389 16.3808V16.3808" stroke="#323232" stroke-width="2" stroke-linecap="round" stroke-linejoin="round"/>
<circle cx="14.9437" cy="14.7374" r="0.199195" fill="white"/>
<g style="mix-blend-mode:multiply">
<path d="M6.57698 5.65237C6.67475 5.33277 6.78339 5.00842 6.90836 4.66187C7.10732 4.11016 7.76888 3.8866 8.2481 4.22472C8.63879 4.50038 8.97165 4.77012 9.30068 5.07375C9.81592 5.54922 9.57158 6.37737 8.90709 6.601C8.67958 6.67757 8.46274 6.75723 8.25128 6.84512C7.41769 7.19162 6.31292 6.51562 6.57698 5.65237Z" fill="#FFEBA8"/>
<path d="M21.9202 5.75313C21.8374 5.36524 21.7308 4.97777 21.584 4.54846C21.3951 3.996 20.732 3.78433 20.2557 4.1221C19.9408 4.34551 19.6567 4.56661 19.3632 4.81424C18.8032 5.28668 19.0297 6.1689 19.7089 6.44354C19.9165 6.52749 20.1116 6.61668 20.3029 6.71672C21.0648 7.1152 22.0999 6.59398 21.9202 5.75313Z" fill="#FFEBA8"/>
</g>
<circle cx="6.8762" cy="17.327" r="1.69315" fill="#FFAC99"/>
<circle cx="21.6166" cy="17.327" r="1.69315" fill="#FFAC99"/>
<path d="M14.3795 2.16016C15.0291 1.49832 15.5562 2.43989 15.5562 2.43989C15.5562 2.43989 16.6086 1.87379 16.8425 2.74565C17.0763 3.61751 15.0859 4.41837 15.0859 4.41837C15.0859 4.41837 13.7299 2.822 14.3795 2.16016Z" fill="#FFE312"/>
<path d="M17.004 0.243542C17.4644 -0.17578 17.7825 0.475312 17.7825 0.475312C17.7825 0.475312 18.5093 0.135315 18.6333 0.728643C18.7574 1.32197 17.3928 1.78411 17.3928 1.78411C17.3928 1.78411 16.5436 0.662864 17.004 0.243542Z" fill="#FFE312"/>
</svg>
