<svg width="27" height="23" viewBox="0 0 27 23" fill="none" xmlns="http://www.w3.org/2000/svg">
<path fill-rule="evenodd" clip-rule="evenodd" d="M22.1589 5.71029C21.6814 3.21121 20.962 0.125628 20.3025 0.00476491C19.7534 -0.0958735 18.1029 1.41414 16.5698 2.97194C15.6119 2.76842 14.6036 2.65976 13.5626 2.65976C12.5068 2.65976 11.4846 2.77154 10.5145 2.9807C8.97894 1.41981 7.3233 -0.0960622 6.77313 0.00476491C6.10886 0.126501 5.38382 3.25597 4.90646 5.76438C3.21282 7.30701 2.19043 9.30793 2.19043 11.4944C2.19043 16.3736 7.28193 20.3289 13.5626 20.3289C19.8433 20.3289 24.9348 16.3736 24.9348 11.4944C24.9348 9.28228 23.8883 7.2601 22.1589 5.71029Z" fill="white"/>
<path fill-rule="evenodd" clip-rule="evenodd" d="M7.2502 13.2936C11.469 13.2936 14.8891 9.8736 14.8891 5.65476C14.8891 4.59852 14.6747 3.59236 14.2871 2.6774C14.0476 2.6657 13.806 2.65976 13.5626 2.65976C12.5068 2.65976 11.4846 2.77154 10.5145 2.9807C8.97893 1.41981 7.3233 -0.0960622 6.77312 0.00476491C6.10885 0.126501 5.38381 3.25599 4.90645 5.76441C3.24276 7.27977 2.22679 9.23737 2.19141 11.3786C3.53876 12.5703 5.31001 13.2936 7.2502 13.2936Z" fill="#FFCE05"/>
<path fill-rule="evenodd" clip-rule="evenodd" d="M24.9064 12.1245C23.6695 12.9865 22.1656 13.4921 20.5437 13.4921C16.3248 13.4921 12.9048 10.072 12.9048 5.85317C12.9048 4.71315 13.1545 3.63146 13.6023 2.65981C14.6293 2.66253 15.6242 2.771 16.57 2.97195C18.1031 1.41415 19.7535 -0.0958736 20.3027 0.00476491C20.9622 0.125628 21.6816 3.21125 22.1591 5.71033C23.8884 7.26013 24.9349 9.2823 24.9349 11.4943C24.9349 11.7062 24.9253 11.9163 24.9064 12.1245Z" fill="#FFCE05"/>
<path d="M22.829 11.0246C24.1794 10.5417 24.4134 10.4609 25.8594 10.2031" stroke="#333333" stroke-width="1.89474" stroke-linecap="round" stroke-linejoin="round"/>
<path d="M22.5226 13.6298C23.9252 14.0099 24.5563 14.0875 25.894 14.7025" stroke="#333333" stroke-width="1.89474" stroke-linecap="round" stroke-linejoin="round"/>
<path d="M22.9823 12.4038C24.2737 12.3278 24.7027 12.4801 25.9924 12.6417" stroke="#333333" stroke-width="1.89474" stroke-linecap="round" stroke-linejoin="round"/>
<path d="M4.17096 11.0246C2.82062 10.5417 2.5866 10.4609 1.14064 10.2031" stroke="#333333" stroke-width="1.89474" stroke-linecap="round" stroke-linejoin="round"/>
<path d="M4.47736 13.6298C3.07475 14.0099 2.44373 14.0875 1.10599 14.7025" stroke="#333333" stroke-width="1.89474" stroke-linecap="round" stroke-linejoin="round"/>
<path d="M4.01775 12.4038C2.72627 12.3278 2.29732 12.4801 1.00764 12.6417" stroke="#333333" stroke-width="1.89474" stroke-linecap="round" stroke-linejoin="round"/>
<path d="M14.7532 12.2671C14.7532 12.6305 14.3325 12.925 13.8134 12.925C13.2943 12.925 12.8735 12.6305 12.8735 12.2671C12.8735 11.9038 13.2943 11.5152 13.8134 11.5152C14.3325 11.5152 14.7532 11.9038 14.7532 12.2671Z" fill="#333333"/>
<path d="M13.8133 11.9852V13.301C13.8133 13.7162 13.4767 14.0528 13.0615 14.0528H12.8265C12.541 14.0528 12.3096 13.8214 12.3096 13.5359V13.5359" stroke="#323232" stroke-width="1.42105" stroke-linecap="round" stroke-linejoin="round"/>
<path d="M13.8134 11.9852V13.301C13.8134 13.7162 14.15 14.0528 14.5653 14.0528H14.8002C15.0857 14.0528 15.3171 13.8214 15.3171 13.5359V13.5359" stroke="#323232" stroke-width="1.42105" stroke-linecap="round" stroke-linejoin="round"/>
<circle cx="14.1894" cy="11.9852" r="0.18797" fill="white"/>
<g style="mix-blend-mode:multiply">
<path d="M6.30897 2.86638C6.38321 2.63106 6.46414 2.39142 6.55414 2.1398C6.75166 1.58756 7.41381 1.36377 7.89112 1.70459C8.2131 1.9345 8.49417 2.16141 8.7697 2.4114C9.28894 2.8825 9.04357 3.70972 8.38065 3.93796C8.24615 3.98426 8.11544 4.03199 7.98725 4.08237C7.14707 4.41257 6.03734 3.72728 6.30897 2.86638Z" fill="#FFCE05" fill-opacity="0.6"/>
<path d="M20.7121 2.97812C20.6425 2.67364 20.5561 2.36612 20.4441 2.0327C20.2581 1.47924 19.594 1.26764 19.1194 1.60771C18.8678 1.78802 18.6359 1.96788 18.3999 2.16437C17.8369 2.63315 18.0654 3.51396 18.741 3.79739C18.8623 3.8483 18.9794 3.90147 19.0944 3.95825C19.8654 4.33894 20.9038 3.81632 20.7121 2.97812Z" fill="#FFCE05" fill-opacity="0.6"/>
</g>
<ellipse cx="8.6388" cy="10.4167" rx="1.28968" ry="1.4881" fill="#333333"/>
<circle cx="8.34116" cy="9.92066" r="0.396825" fill="white"/>
<ellipse cx="18.9562" cy="10.4167" rx="1.28968" ry="1.4881" fill="#333333"/>
<circle cx="18.6585" cy="9.92066" r="0.396825" fill="white"/>
<path d="M14.1036 18.7205C14.018 18.7685 13.9209 18.7938 13.8221 18.7938H13.5656C13.4668 18.7938 13.3697 18.7685 13.2842 18.7205L11.1811 17.5394C10.787 17.318 10.2992 17.62 10.328 18.0618C10.4065 19.2667 10.4049 20.217 10.3266 21.4222C10.298 21.8635 10.7853 22.1646 11.179 21.9435L13.3663 20.7151C13.4519 20.667 13.549 20.6417 13.6478 20.6417H13.74C13.8388 20.6417 13.9358 20.667 14.0214 20.7151L16.2194 21.9495C16.611 22.1694 17.0962 21.8727 17.0705 21.4336C16.9994 20.2198 16.9961 19.2659 17.0678 18.0529C17.0938 17.6128 16.6075 17.3142 16.2151 17.5346L14.1036 18.7205Z" fill="#FFC547"/>
</svg>
