<svg width="24" height="28" viewBox="0 0 24 28" fill="none" xmlns="http://www.w3.org/2000/svg">
<path d="M5.90581 21.1373C4.31512 19.2461 4.64575 16.4842 6.46332 14.8098L12.4348 9.30862L18.0617 14.7602C19.8235 16.4671 20.0947 19.2104 18.495 21.0701C16.5721 23.3056 13.9826 25.8375 12.1178 25.8375C10.2716 25.8375 7.77187 23.356 5.90581 21.1373Z" fill="#FF9E77"/>
<path fill-rule="evenodd" clip-rule="evenodd" d="M8.34542 20.0899C8.2746 20.0434 8.19626 20.0323 8.1305 20.0596C8.06474 20.0869 8.01725 20.1502 8.00021 20.2332C7.98455 20.3095 7.99476 20.3968 8.02896 20.4792C8.06316 20.5616 8.11783 20.6305 8.18289 20.6733C8.25372 20.7198 8.33205 20.7309 8.39781 20.7036C8.46357 20.6763 8.51106 20.613 8.52811 20.53C8.54376 20.4537 8.53355 20.3663 8.49935 20.284C8.46515 20.2016 8.41048 20.1326 8.34542 20.0899ZM8.65996 20.8823C8.47969 20.7871 8.29477 20.7703 8.13924 20.8349C7.98371 20.8994 7.86507 21.0423 7.80518 21.2371C7.75135 21.4122 7.75509 21.6032 7.81519 21.748C7.84438 21.8183 7.88812 21.863 7.94519 21.8807C8.00151 21.8982 8.06166 21.887 8.12331 21.8615C8.1889 21.8342 8.25619 21.7906 8.3223 21.7478C8.38007 21.7104 8.43463 21.675 8.48016 21.6561C8.51945 21.6398 8.57912 21.6271 8.64228 21.6136C8.7899 21.5822 8.95721 21.5465 9.01597 21.4347C9.04391 21.3815 9.04348 21.3194 9.0147 21.2501C8.9546 21.1053 8.82199 20.9678 8.65996 20.8823ZM7.5965 20.2813C7.66226 20.254 7.74059 20.2651 7.81142 20.3116C7.87648 20.3544 7.93114 20.4233 7.96535 20.5057C7.99955 20.5881 8.00976 20.6754 7.9941 20.7517C7.97706 20.8347 7.92957 20.898 7.86381 20.9253C7.79805 20.9526 7.71971 20.9415 7.64889 20.895C7.58383 20.8523 7.52916 20.7833 7.49496 20.7009C7.46076 20.6186 7.45055 20.5312 7.4662 20.4549C7.48325 20.3719 7.53074 20.3086 7.5965 20.2813ZM8.99759 20.4117C8.95487 20.3588 8.89873 20.3308 8.83953 20.3328C8.79188 20.3344 8.74645 20.3564 8.71159 20.3946C8.66354 20.4472 8.63873 20.5251 8.6435 20.6081C8.6474 20.676 8.67083 20.7398 8.70948 20.7876C8.7522 20.8405 8.80834 20.8685 8.86755 20.8665C8.88804 20.8658 8.90811 20.8613 8.92712 20.8535C8.95231 20.843 8.97562 20.8265 8.99549 20.8047C9.04353 20.7521 9.06835 20.6742 9.06358 20.5912L9.06358 20.5912C9.05967 20.5233 9.03624 20.4595 8.99759 20.4117ZM7.42345 20.9293C7.49465 20.9325 7.5673 20.9698 7.62276 21.0319C7.66808 21.0826 7.69668 21.1442 7.70329 21.2053C7.71058 21.2729 7.6908 21.3324 7.64756 21.373C7.6326 21.387 7.61527 21.398 7.59626 21.4059C7.57107 21.4164 7.54293 21.4212 7.51348 21.4199C7.44227 21.4168 7.36963 21.3794 7.31416 21.3174L7.31416 21.3174C7.26884 21.2667 7.24024 21.2051 7.23364 21.1439C7.22634 21.0763 7.24613 21.0168 7.28937 20.9763C7.32416 20.9437 7.37177 20.927 7.42345 20.9293Z" fill="white" fill-opacity="0.5"/>
<path fill-rule="evenodd" clip-rule="evenodd" d="M16.3722 20.1746C16.4316 20.214 16.466 20.2852 16.4669 20.3699C16.4676 20.4478 16.4409 20.5316 16.3915 20.6059C16.3422 20.6802 16.2753 20.7374 16.2033 20.7669C16.1248 20.799 16.0458 20.7948 15.9865 20.7554C15.9272 20.716 15.8927 20.6448 15.8919 20.5601C15.8911 20.4822 15.9179 20.3984 15.9672 20.3241C16.0166 20.2498 16.0835 20.1927 16.1555 20.1632C16.2339 20.1311 16.3129 20.1352 16.3722 20.1746ZM16.9485 20.6899C16.9477 20.6052 16.9132 20.534 16.8539 20.4946C16.7946 20.4552 16.7156 20.451 16.6372 20.4831C16.5651 20.5126 16.4983 20.5698 16.4489 20.6441C16.3996 20.7184 16.3728 20.8022 16.3736 20.88C16.3744 20.9648 16.4089 21.036 16.4682 21.0754C16.5275 21.1148 16.6065 21.1189 16.6849 21.0868C16.757 21.0573 16.8238 21.0002 16.8732 20.9259C16.9225 20.8515 16.9493 20.7677 16.9485 20.6899ZM16.4659 21.3926C16.4445 21.1899 16.3554 21.027 16.2151 20.9338C16.0748 20.8407 15.8901 20.8218 15.695 20.8806C15.5196 20.9335 15.3631 21.043 15.2763 21.1736C15.2342 21.237 15.2215 21.2982 15.2386 21.3555C15.2555 21.412 15.2982 21.4558 15.3538 21.4927C15.413 21.532 15.4867 21.5635 15.5591 21.5946C15.6224 21.6217 15.6821 21.6473 15.7232 21.6746C15.7586 21.6981 15.8024 21.7406 15.8488 21.7855C15.9572 21.8905 16.08 22.0096 16.2056 21.9961C16.2654 21.9896 16.3167 21.9547 16.3582 21.8921C16.445 21.7615 16.4852 21.5748 16.4659 21.3926ZM17.0448 21.4107C17.0649 21.3457 17.0569 21.2835 17.0222 21.2355C16.9943 21.1968 16.9507 21.1713 16.8996 21.1637C16.8291 21.1531 16.7506 21.1759 16.6843 21.2261C16.6301 21.2672 16.5903 21.3222 16.5721 21.3809C16.5519 21.4459 16.56 21.5081 16.5946 21.5562C16.6066 21.5728 16.6215 21.587 16.6387 21.5984C16.6614 21.6134 16.6881 21.6236 16.7172 21.628C16.7877 21.6385 16.8662 21.6157 16.9325 21.5655L16.9325 21.5655C16.9867 21.5244 17.0266 21.4694 17.0448 21.4107ZM15.7378 20.3921C15.7748 20.4529 15.7843 20.5341 15.7637 20.6147C15.7469 20.6806 15.7116 20.7387 15.6645 20.7782C15.6125 20.822 15.552 20.8387 15.4943 20.8254C15.4743 20.8208 15.4555 20.8125 15.4383 20.8012C15.4156 20.7861 15.3959 20.7654 15.3806 20.7402C15.3435 20.6794 15.3341 20.5982 15.3546 20.5176L15.3546 20.5176C15.3715 20.4517 15.4067 20.3936 15.4538 20.3541C15.5059 20.3103 15.5663 20.2936 15.624 20.3069C15.6705 20.3176 15.7109 20.3479 15.7378 20.3921Z" fill="white" fill-opacity="0.5"/>
<path fill-rule="evenodd" clip-rule="evenodd" d="M12.9986 21.7399C12.9303 21.6393 12.8327 21.5817 12.7305 21.5817C12.6284 21.5817 12.5307 21.6394 12.4625 21.7399C12.3999 21.8323 12.3653 21.9537 12.3653 22.0816C12.3653 22.2095 12.3998 22.3309 12.4625 22.4233C12.5307 22.5239 12.6284 22.5816 12.7305 22.5816C12.8327 22.5816 12.9303 22.5239 12.9986 22.4233C13.0612 22.3309 13.0957 22.2095 13.0957 22.0816C13.0957 21.9537 13.0612 21.8323 12.9986 21.7399ZM12.9795 22.9624C12.793 22.7373 12.5573 22.6133 12.3158 22.6133C12.0743 22.6133 11.8386 22.7373 11.6522 22.9624C11.4846 23.1648 11.3846 23.4198 11.3846 23.6446C11.3846 23.7538 11.4179 23.837 11.4838 23.8918C11.5488 23.946 11.6346 23.9643 11.7303 23.9643C11.8321 23.9643 11.9452 23.9436 12.0563 23.9232C12.1534 23.9054 12.2452 23.8885 12.3158 23.8885C12.3769 23.8885 12.4629 23.9045 12.5539 23.9214C12.7668 23.9609 13.008 24.0057 13.1473 23.8899C13.2135 23.8348 13.2471 23.7523 13.2471 23.6446C13.2471 23.4198 13.1471 23.1648 12.9795 22.9624ZM11.901 21.5817C12.0032 21.5817 12.1008 21.6393 12.1691 21.7399C12.2317 21.8323 12.2662 21.9537 12.2662 22.0816C12.2662 22.2096 12.2317 22.3309 12.1691 22.4233C12.1008 22.5239 12.0032 22.5816 11.901 22.5816C11.7989 22.5816 11.7012 22.5239 11.633 22.4233C11.5703 22.3309 11.5358 22.2095 11.5358 22.0816C11.5358 21.9537 11.5704 21.8323 11.633 21.7399C11.7012 21.6394 11.7989 21.5817 11.901 21.5817ZM13.6853 22.5247C13.6578 22.4312 13.5988 22.3632 13.5193 22.3333C13.4553 22.3093 13.3831 22.3133 13.3159 22.3448C13.2233 22.3881 13.1476 22.4776 13.1083 22.5902C13.0761 22.6823 13.0721 22.7796 13.097 22.8642C13.1245 22.9578 13.1834 23.0258 13.263 23.0556C13.2905 23.066 13.3195 23.0711 13.349 23.0711C13.3882 23.0711 13.4281 23.0621 13.4664 23.0442C13.559 23.0008 13.6347 22.9114 13.674 22.7987V22.7987C13.7062 22.7067 13.7102 22.6094 13.6853 22.5247ZM11.3156 22.3448C11.4082 22.3881 11.4839 22.4776 11.5232 22.5902C11.5554 22.6823 11.5594 22.7796 11.5345 22.8642C11.507 22.9578 11.4481 23.0258 11.3685 23.0556C11.341 23.066 11.3119 23.0711 11.2824 23.0711C11.2433 23.0711 11.2034 23.0621 11.1651 23.0442C11.0725 23.0008 10.9968 22.9114 10.9575 22.7987V22.7987C10.9253 22.7067 10.9213 22.6093 10.9462 22.5247C10.9737 22.4312 11.0326 22.3632 11.1122 22.3333C11.1762 22.3093 11.2484 22.3133 11.3156 22.3448Z" fill="white" fill-opacity="0.5"/>
<path fill-rule="evenodd" clip-rule="evenodd" d="M1.15334 0.301814C3.05895 -0.732661 6.04279 1.07817 8.34194 2.91696C9.49152 2.38842 10.7373 2.08338 12.0188 2.08338C13.2949 2.08338 14.5297 2.38589 15.6662 2.91037C17.9643 1.07385 20.9433 -0.731426 22.8466 0.301814C25.4289 1.70361 23.0614 7.94512 21.6887 11.0321C21.7083 11.25 21.7183 11.4674 21.7183 11.684C21.7183 16.2757 17.2117 19.9979 12.0188 19.9979C6.82581 19.9979 2.22019 16.2757 2.22019 11.684C2.22019 11.4304 2.23424 11.1755 2.26167 10.9202C0.882698 7.79677 -1.39809 1.68688 1.15334 0.301814Z" fill="white"/>
<path fill-rule="evenodd" clip-rule="evenodd" d="M3.31649 15.4426C8.1959 15.3237 12.1178 10.9834 12.1178 5.64648C12.1178 4.39551 11.9023 3.1993 11.5095 2.09937C10.4076 2.16847 9.33864 2.45871 8.34194 2.91696C6.04279 1.07817 3.05895 -0.732662 1.15334 0.301814C-1.39811 1.68689 0.882726 7.79685 2.26169 10.9203C2.23427 11.1755 2.22022 11.4304 2.22022 11.684C2.22022 13.0366 2.61989 14.3138 3.31649 15.4426Z" fill="#FED402"/>
<path fill-rule="evenodd" clip-rule="evenodd" d="M13.102 2.15568C13.993 2.27451 14.8547 2.53585 15.6663 2.91038C17.9643 1.07385 20.9433 -0.731427 22.8466 0.301814C25.4289 1.70362 23.0614 7.94521 21.6887 11.0322C21.7083 11.25 21.7184 11.4675 21.7184 11.684C21.7184 13.0203 21.3367 14.283 20.6674 15.4017C16.0932 14.9342 12.5136 10.7451 12.5136 5.64648C12.5136 4.41683 12.7218 3.24008 13.102 2.15568Z" fill="#FED402"/>
<g style="mix-blend-mode:multiply">
<path d="M1.80303 1.83991C1.09166 2.30068 1.13781 3.5755 1.43285 4.90413C1.79149 6.51914 3.95365 6.65018 5.12203 5.47894C5.20043 5.40035 5.28036 5.32171 5.36198 5.24277C6.26621 4.36817 6.24311 2.89566 5.12569 2.31779C3.99695 1.73405 2.65499 1.28809 1.80303 1.83991Z" fill="#FED402" fill-opacity="0.5"/>
<path d="M22.2345 1.83991C22.9459 2.30068 22.8997 3.5755 22.6047 4.90413C22.246 6.51914 20.0839 6.65018 18.9155 5.47894C18.8371 5.40035 18.7572 5.32171 18.6756 5.24277C17.7713 4.36817 17.7944 2.89566 18.9118 2.31779C20.0406 1.73405 21.3825 1.28809 22.2345 1.83991Z" fill="#FED402" fill-opacity="0.5"/>
</g>
<ellipse cx="8.0598" cy="9.90238" rx="1.08873" ry="1.38566" fill="#56392B"/>
<ellipse cx="8.45568" cy="9.70437" rx="0.296926" ry="0.395902" fill="white"/>
<ellipse cx="1.08873" cy="1.38566" rx="1.08873" ry="1.38566" transform="matrix(-1 0 0 1 17.4624 8.51672)" fill="#56392B"/>
<ellipse cx="0.296926" cy="0.395902" rx="0.296926" ry="0.395902" transform="matrix(-1 0 0 1 16.2747 9.30847)" fill="white"/>
<path d="M13.7014 12.5747C13.7014 12.9574 13.081 13.2676 12.3157 13.2676C11.5504 13.2676 10.9301 12.9574 10.9301 12.5747C10.9301 12.1921 11.5504 11.684 12.3157 11.684C13.081 11.684 13.7014 12.1921 13.7014 12.5747Z" fill="#56392B"/>
<circle cx="12.9097" cy="12.2778" r="0.197951" fill="white"/>
<path d="M12.3158 12.2778V13.4655C12.3158 13.9028 11.9613 14.2573 11.524 14.2573H11.2271C10.9537 14.2573 10.7322 14.0358 10.7322 13.7625V13.7625" stroke="#56392B" stroke-width="2" stroke-linecap="round" stroke-linejoin="round"/>
<path d="M12.3159 12.2778V13.4655C12.3159 13.9028 12.6704 14.2573 13.1077 14.2573H13.4046C13.6779 14.2573 13.8995 14.0358 13.8995 13.7625V13.7625" stroke="#56392B" stroke-width="2" stroke-linecap="round" stroke-linejoin="round"/>
<ellipse cx="7.16906" cy="12.6737" rx="1.58361" ry="0.989754" fill="#FEB1AA"/>
<ellipse cx="17.4625" cy="12.6737" rx="1.58361" ry="0.989754" fill="#FEB1AA"/>
</svg>
