<svg width="24" height="29" viewBox="0 0 24 29" fill="none" xmlns="http://www.w3.org/2000/svg">
<rect x="1.18848" y="1.38498" width="21.9889" height="21.5661" rx="10.783" fill="white"/>
<path fill-rule="evenodd" clip-rule="evenodd" d="M13.1597 1.41171C18.7579 1.80418 23.1776 6.46997 23.1776 12.168C23.1776 12.9705 23.0899 13.7525 22.9237 14.5049C22.1558 14.7332 21.3436 14.8557 20.5033 14.8557C15.7441 14.8557 11.886 10.9281 11.886 6.08313C11.886 4.39942 12.3519 2.79223 13.1597 1.41171Z" fill="#FFD374"/>
<path d="M9.41122 0.69164C7.93954 -1.07292 -0.21933 2.06253 0.29869 4.35646C0.816711 6.6504 3.96351 11.488 6.43974 10.0023C8.91597 8.51653 10.8829 2.4562 9.41122 0.69164Z" fill="#F8B930"/>
<path d="M14.5888 0.69164C16.0605 -1.07292 24.2193 2.06253 23.7013 4.35646C23.1833 6.6504 20.0365 11.488 17.5603 10.0023C15.084 8.51653 13.1171 2.4562 14.5888 0.69164Z" fill="#F8B930"/>
<circle cx="1.42514" cy="1.42514" r="1.42514" transform="matrix(-1 0 0 1 18.4231 10.2994)" fill="#3A211F"/>
<circle cx="0.316697" cy="0.316697" r="0.316697" transform="matrix(-1 0 0 1 17.8679 11.0918)" fill="white"/>
<path d="M8.91455 12.4785C8.91455 12.2704 8.87356 12.0643 8.79392 11.872C8.71427 11.6797 8.59754 11.505 8.45038 11.3579C8.30322 11.2107 8.12851 11.094 7.93623 11.0143C7.74396 10.9347 7.53788 10.8937 7.32976 10.8937C7.12164 10.8937 6.91557 10.9347 6.72329 11.0143C6.53101 11.094 6.35631 11.2107 6.20915 11.3579C6.06199 11.505 5.94525 11.6797 5.86561 11.872C5.78597 12.0643 5.74497 12.2704 5.74497 12.4785" stroke="#3A211F" stroke-width="2.5" stroke-linecap="round" stroke-linejoin="round"/>
<ellipse cx="12.0768" cy="16.9357" rx="5.93571" ry="3.86292" fill="#F2F2F2"/>
<path d="M12.1832 14.9574V16.5487C12.1832 17.0684 12.6045 17.4897 13.1242 17.4897H13.2557C13.7028 17.4897 14.0652 17.1273 14.0652 16.6802V16.6802" stroke="#3A211F" stroke-width="2.5" stroke-linecap="round" stroke-linejoin="round"/>
<path d="M12.1832 14.9574V16.5487C12.1832 17.0684 11.7619 17.4897 11.2422 17.4897H11.1108C10.6637 17.4897 10.3013 17.1273 10.3013 16.6802V16.6802" stroke="#3A211F" stroke-width="2.5" stroke-linecap="round" stroke-linejoin="round"/>
<path d="M13.5433 14.7161C13.5433 14.3556 12.9344 14.0633 12.1833 14.0633C11.4321 14.0633 10.8232 14.3556 10.8232 14.7161C10.8232 15.0766 11.4322 15.9333 12.1833 15.9333C12.9344 15.9333 13.5433 15.0766 13.5433 14.7161Z" fill="#3A211F"/>
<circle cx="11.4181" cy="14.6583" r="0.255004" fill="white"/>
<ellipse cx="5.68427" cy="14.7566" rx="1.52411" ry="0.891443" fill="#FEB1AA"/>
<ellipse cx="18.2411" cy="14.7566" rx="1.52411" ry="0.891443" fill="#FEB1AA"/>
<path d="M8.95115 25.2129L8.95188 25.2121C9.5116 25.2144 9.99145 24.816 10.0919 24.2657L14.394 24.2722C14.5145 24.9025 15.1227 25.3175 15.7526 25.1992C16.3825 25.0809 16.7954 24.474 16.675 23.8437C16.6297 23.6069 16.512 23.3898 16.3381 23.2225C16.5677 23.0058 16.6975 22.7037 16.6967 22.3874C16.7102 21.7463 16.2015 21.2139 15.5603 21.1981C14.9819 21.184 14.4828 21.5977 14.3897 22.1683L10.0883 22.1611C9.96787 21.5308 9.3596 21.1158 8.72972 21.2341C8.09986 21.3525 7.68688 21.9593 7.80735 22.5896C7.85261 22.8264 7.97037 23.0435 8.14429 23.2108C7.68138 23.6531 7.66586 24.388 8.10969 24.8525C8.32944 25.0825 8.63356 25.2127 8.95115 25.2129Z" fill="#D3D3D3"/>
</svg>
