<svg width="33" height="33" viewBox="0 0 33 33" fill="none" xmlns="http://www.w3.org/2000/svg">
<path d="M30.25 16.5L24.75 11V15.125H13.75V17.875H24.75V22M27.5 24.75C25.7685 27.0587 23.3544 28.7641 20.5998 29.6246C17.8452 30.485 14.8897 30.457 12.1519 29.5444C9.41408 28.6318 7.03283 26.8809 5.34542 24.5398C3.65801 22.1986 2.75 19.3859 2.75 16.5C2.75 13.6141 3.65801 10.8014 5.34542 8.46023C7.03283 6.11908 9.41408 4.3682 12.1519 3.4556C14.8897 2.54301 17.8452 2.51496 20.5998 3.37544C23.3544 4.23592 25.7685 5.94129 27.5 8.25H23.7463C22.1586 6.84979 20.2006 5.93745 18.1072 5.62245C16.0138 5.30746 13.8741 5.6032 11.9446 6.47418C10.0152 7.34517 8.37804 8.75439 7.22966 10.5328C6.08127 12.3111 5.47043 14.3831 5.47043 16.5C5.47043 18.6169 6.08127 20.6889 7.22966 22.4672C8.37804 24.2456 10.0152 25.6548 11.9446 26.5258C13.8741 27.3968 16.0138 27.6925 18.1072 27.3775C20.2006 27.0626 22.1586 26.1502 23.7463 24.75H27.5Z" fill="#F5F5F5"/>
</svg>
