<svg width="27" height="27" viewBox="0 0 27 27" fill="none" xmlns="http://www.w3.org/2000/svg">
<path d="M13.5 0C15.2902 0 17.0071 0.711158 18.273 1.97703C19.5388 3.2429 20.25 4.95979 20.25 6.75C20.25 8.54021 19.5388 10.2571 18.273 11.523C17.0071 12.7888 15.2902 13.5 13.5 13.5C11.7098 13.5 9.9929 12.7888 8.72703 11.523C7.46116 10.2571 6.75 8.54021 6.75 6.75C6.75 4.95979 7.46116 3.2429 8.72703 1.97703C9.9929 0.711158 11.7098 0 13.5 0ZM13.5 16.875C20.9587 16.875 27 19.8956 27 23.625V27H0V23.625C0 19.8956 6.04125 16.875 13.5 16.875Z" fill="#F5F5F5"/>
</svg>
